G04 #@! TF.GenerationSoftware,KiCad,Pcbnew,(5.0.1)-3*
G04 #@! TF.CreationDate,2018-12-03T12:15:07+01:00*
G04 #@! TF.ProjectId,drawdio,6472617764696F2E6B696361645F7063,rev?*
G04 #@! TF.SameCoordinates,PX60a6ad0PY525bfc0*
G04 #@! TF.FileFunction,Soldermask,Bot*
G04 #@! TF.FilePolarity,Negative*
%FSLAX46Y46*%
G04 Gerber Fmt 4.6, Leading zero omitted, Abs format (unit mm)*
G04 Created by KiCad (PCBNEW (5.0.1)-3) date 03/12/2018 12:15:07*
%MOMM*%
%LPD*%
G01*
G04 APERTURE LIST*
%ADD10C,0.150000*%
G04 APERTURE END LIST*
D10*
G36*
X34064048Y-8046704D02*
X34064051Y-8046705D01*
X34346802Y-8132476D01*
X34346804Y-8132477D01*
X34607389Y-8271763D01*
X34835792Y-8459208D01*
X35023237Y-8687611D01*
X35023238Y-8687613D01*
X35162524Y-8948198D01*
X35221391Y-9142257D01*
X35248296Y-9230952D01*
X35277257Y-9525000D01*
X35248296Y-9819048D01*
X35162523Y-10101804D01*
X35023237Y-10362389D01*
X34835792Y-10590792D01*
X34607389Y-10778237D01*
X34607387Y-10778238D01*
X34346802Y-10917524D01*
X34116685Y-10987329D01*
X34064048Y-11003296D01*
X33843684Y-11025000D01*
X32196316Y-11025000D01*
X31975952Y-11003296D01*
X31923315Y-10987329D01*
X31693198Y-10917524D01*
X31432613Y-10778238D01*
X31432611Y-10778237D01*
X31204208Y-10590792D01*
X31016763Y-10362389D01*
X30877477Y-10101804D01*
X30791704Y-9819048D01*
X30762743Y-9525000D01*
X30791704Y-9230952D01*
X30818609Y-9142257D01*
X30877476Y-8948198D01*
X31016762Y-8687613D01*
X31016763Y-8687611D01*
X31204208Y-8459208D01*
X31432611Y-8271763D01*
X31693196Y-8132477D01*
X31693198Y-8132476D01*
X31975949Y-8046705D01*
X31975952Y-8046704D01*
X32196316Y-8025000D01*
X33843684Y-8025000D01*
X34064048Y-8046704D01*
X34064048Y-8046704D01*
G37*
G36*
X-20545952Y-8046704D02*
X-20545949Y-8046705D01*
X-20263198Y-8132476D01*
X-20263196Y-8132477D01*
X-20002611Y-8271763D01*
X-19774208Y-8459208D01*
X-19586763Y-8687611D01*
X-19586762Y-8687613D01*
X-19447476Y-8948198D01*
X-19388609Y-9142257D01*
X-19361704Y-9230952D01*
X-19332743Y-9525000D01*
X-19361704Y-9819048D01*
X-19447477Y-10101804D01*
X-19586763Y-10362389D01*
X-19774208Y-10590792D01*
X-20002611Y-10778237D01*
X-20002613Y-10778238D01*
X-20263198Y-10917524D01*
X-20493315Y-10987329D01*
X-20545952Y-11003296D01*
X-20766316Y-11025000D01*
X-22413684Y-11025000D01*
X-22634048Y-11003296D01*
X-22686685Y-10987329D01*
X-22916802Y-10917524D01*
X-23177387Y-10778238D01*
X-23177389Y-10778237D01*
X-23405792Y-10590792D01*
X-23593237Y-10362389D01*
X-23732523Y-10101804D01*
X-23818296Y-9819048D01*
X-23847257Y-9525000D01*
X-23818296Y-9230952D01*
X-23791391Y-9142257D01*
X-23732524Y-8948198D01*
X-23593238Y-8687613D01*
X-23593237Y-8687611D01*
X-23405792Y-8459208D01*
X-23177389Y-8271763D01*
X-22916804Y-8132477D01*
X-22916802Y-8132476D01*
X-22634051Y-8046705D01*
X-22634048Y-8046704D01*
X-22413684Y-8025000D01*
X-20766316Y-8025000D01*
X-20545952Y-8046704D01*
X-20545952Y-8046704D01*
G37*
G36*
X-1540510Y-10651490D02*
X-3539490Y-10651490D01*
X-3539490Y-8652510D01*
X-1540510Y-8652510D01*
X-1540510Y-10651490D01*
X-1540510Y-10651490D01*
G37*
G36*
X1634490Y-10524490D02*
X-364490Y-10524490D01*
X-364490Y-8525510D01*
X1634490Y-8525510D01*
X1634490Y-10524490D01*
X1634490Y-10524490D01*
G37*
G36*
X-4715510Y-10524490D02*
X-6714490Y-10524490D01*
X-6714490Y-8525510D01*
X-4715510Y-8525510D01*
X-4715510Y-10524490D01*
X-4715510Y-10524490D01*
G37*
G36*
X-7890510Y-10524490D02*
X-9889490Y-10524490D01*
X-9889490Y-8525510D01*
X-7890510Y-8525510D01*
X-7890510Y-10524490D01*
X-7890510Y-10524490D01*
G37*
G36*
X4809490Y-10445750D02*
X2810510Y-10445750D01*
X2810510Y-8446770D01*
X4809490Y-8446770D01*
X4809490Y-10445750D01*
X4809490Y-10445750D01*
G37*
G36*
X7984490Y-10445750D02*
X5985510Y-10445750D01*
X5985510Y-8446770D01*
X7984490Y-8446770D01*
X7984490Y-10445750D01*
X7984490Y-10445750D01*
G37*
G36*
X-35265953Y-2156704D02*
X-35213316Y-2172671D01*
X-34983199Y-2242476D01*
X-34983197Y-2242477D01*
X-34722612Y-2381763D01*
X-34494209Y-2569208D01*
X-34306764Y-2797611D01*
X-34306763Y-2797613D01*
X-34167477Y-3058198D01*
X-34127921Y-3188599D01*
X-34081705Y-3340952D01*
X-34060001Y-3561316D01*
X-34060000Y-7708683D01*
X-34081704Y-7929047D01*
X-34081705Y-7929050D01*
X-34143413Y-8132477D01*
X-34167477Y-8211803D01*
X-34306763Y-8472388D01*
X-34494208Y-8700791D01*
X-34722611Y-8888236D01*
X-34722613Y-8888237D01*
X-34983198Y-9027523D01*
X-35124573Y-9070408D01*
X-35265951Y-9113295D01*
X-35527874Y-9139093D01*
X-35560000Y-9142257D01*
X-35560001Y-9142257D01*
X-35854047Y-9113296D01*
X-35906684Y-9097329D01*
X-36136801Y-9027524D01*
X-36397386Y-8888238D01*
X-36397388Y-8888237D01*
X-36625791Y-8700792D01*
X-36813236Y-8472389D01*
X-36952522Y-8211804D01*
X-37002604Y-8046704D01*
X-37038294Y-7929051D01*
X-37038294Y-7929050D01*
X-37038295Y-7929048D01*
X-37059999Y-7708684D01*
X-37060000Y-3561317D01*
X-37038296Y-3340953D01*
X-36952523Y-3058197D01*
X-36813237Y-2797612D01*
X-36625792Y-2569209D01*
X-36397389Y-2381764D01*
X-36136804Y-2242478D01*
X-36136802Y-2242477D01*
X-35995426Y-2199591D01*
X-35854049Y-2156705D01*
X-35592126Y-2130907D01*
X-35560000Y-2127743D01*
X-35559999Y-2127743D01*
X-35265953Y-2156704D01*
X-35265953Y-2156704D01*
G37*
G36*
X-46760000Y5365001D02*
X-46760000Y-6635001D01*
X-49760000Y-7635001D01*
X-49760000Y6365001D01*
X-46760000Y5365001D01*
X-46760000Y5365001D01*
G37*
G36*
X38965000Y-7635001D02*
X35965000Y-6635001D01*
X35965000Y5365001D01*
X38965000Y6365001D01*
X38965000Y-7635001D01*
X38965000Y-7635001D01*
G37*
G36*
X-13170000Y-4610000D02*
X-14770000Y-4610000D01*
X-14770000Y-3010000D01*
X-13170000Y-3010000D01*
X-13170000Y-4610000D01*
X-13170000Y-4610000D01*
G37*
G36*
X-16236648Y-3040743D02*
X-16091059Y-3101048D01*
X-15960027Y-3188601D01*
X-15848601Y-3300027D01*
X-15761048Y-3431059D01*
X-15700743Y-3576648D01*
X-15670000Y-3731205D01*
X-15670000Y-3888795D01*
X-15700743Y-4043352D01*
X-15761048Y-4188941D01*
X-15848601Y-4319973D01*
X-15960027Y-4431399D01*
X-16091059Y-4518952D01*
X-16236648Y-4579257D01*
X-16391205Y-4610000D01*
X-16548795Y-4610000D01*
X-16703352Y-4579257D01*
X-16848941Y-4518952D01*
X-16979973Y-4431399D01*
X-17091399Y-4319973D01*
X-17178952Y-4188941D01*
X-17239257Y-4043352D01*
X-17270000Y-3888795D01*
X-17270000Y-3731205D01*
X-17239257Y-3576648D01*
X-17178952Y-3431059D01*
X-17091399Y-3300027D01*
X-16979973Y-3188601D01*
X-16848941Y-3101048D01*
X-16703352Y-3040743D01*
X-16548795Y-3010000D01*
X-16391205Y-3010000D01*
X-16236648Y-3040743D01*
X-16236648Y-3040743D01*
G37*
G36*
X28740000Y-4610000D02*
X27140000Y-4610000D01*
X27140000Y-3010000D01*
X28740000Y-3010000D01*
X28740000Y-4610000D01*
X28740000Y-4610000D01*
G37*
G36*
X25673352Y-3040743D02*
X25818941Y-3101048D01*
X25949973Y-3188601D01*
X26061399Y-3300027D01*
X26148952Y-3431059D01*
X26209257Y-3576648D01*
X26240000Y-3731205D01*
X26240000Y-3888795D01*
X26209257Y-4043352D01*
X26148952Y-4188941D01*
X26061399Y-4319973D01*
X25949973Y-4431399D01*
X25818941Y-4518952D01*
X25673352Y-4579257D01*
X25518795Y-4610000D01*
X25361205Y-4610000D01*
X25206648Y-4579257D01*
X25061059Y-4518952D01*
X24930027Y-4431399D01*
X24818601Y-4319973D01*
X24731048Y-4188941D01*
X24670743Y-4043352D01*
X24640000Y-3888795D01*
X24640000Y-3731205D01*
X24670743Y-3576648D01*
X24731048Y-3431059D01*
X24818601Y-3300027D01*
X24930027Y-3188601D01*
X25061059Y-3101048D01*
X25206648Y-3040743D01*
X25361205Y-3010000D01*
X25518795Y-3010000D01*
X25673352Y-3040743D01*
X25673352Y-3040743D01*
G37*
G36*
X-1540510Y-648970D02*
X-3539490Y-648970D01*
X-3539490Y1350010D01*
X-1540510Y1350010D01*
X-1540510Y-648970D01*
X-1540510Y-648970D01*
G37*
G36*
X-4715510Y-521970D02*
X-6714490Y-521970D01*
X-6714490Y1477010D01*
X-4715510Y1477010D01*
X-4715510Y-521970D01*
X-4715510Y-521970D01*
G37*
G36*
X-7890510Y-521970D02*
X-9889490Y-521970D01*
X-9889490Y1477010D01*
X-7890510Y1477010D01*
X-7890510Y-521970D01*
X-7890510Y-521970D01*
G37*
G36*
X1634490Y-521970D02*
X-364490Y-521970D01*
X-364490Y1477010D01*
X1634490Y1477010D01*
X1634490Y-521970D01*
X1634490Y-521970D01*
G37*
G36*
X7984490Y-443230D02*
X5985510Y-443230D01*
X5985510Y1555750D01*
X7984490Y1555750D01*
X7984490Y-443230D01*
X7984490Y-443230D01*
G37*
G36*
X4809490Y-443230D02*
X2810510Y-443230D01*
X2810510Y1555750D01*
X4809490Y1555750D01*
X4809490Y-443230D01*
X4809490Y-443230D01*
G37*
G36*
X34064048Y3383296D02*
X34064051Y3383295D01*
X34346802Y3297524D01*
X34346804Y3297523D01*
X34607389Y3158237D01*
X34835792Y2970792D01*
X35023237Y2742389D01*
X35162523Y2481804D01*
X35248296Y2199048D01*
X35277257Y1905000D01*
X35248296Y1610952D01*
X35248295Y1610949D01*
X35169141Y1350010D01*
X35162523Y1328196D01*
X35023237Y1067611D01*
X34835792Y839208D01*
X34607389Y651763D01*
X34607387Y651762D01*
X34346802Y512476D01*
X34116685Y442671D01*
X34064048Y426704D01*
X33843684Y405000D01*
X32196316Y405000D01*
X31975952Y426704D01*
X31923315Y442671D01*
X31693198Y512476D01*
X31432613Y651762D01*
X31432611Y651763D01*
X31204208Y839208D01*
X31016763Y1067611D01*
X30877477Y1328196D01*
X30870860Y1350010D01*
X30791705Y1610949D01*
X30791704Y1610952D01*
X30762743Y1905000D01*
X30791704Y2199048D01*
X30877477Y2481804D01*
X31016763Y2742389D01*
X31204208Y2970792D01*
X31432611Y3158237D01*
X31693196Y3297523D01*
X31693198Y3297524D01*
X31975949Y3383295D01*
X31975952Y3383296D01*
X32196316Y3405000D01*
X33843684Y3405000D01*
X34064048Y3383296D01*
X34064048Y3383296D01*
G37*
G36*
X-20545952Y3383296D02*
X-20545949Y3383295D01*
X-20263198Y3297524D01*
X-20263196Y3297523D01*
X-20002611Y3158237D01*
X-19774208Y2970792D01*
X-19586763Y2742389D01*
X-19447477Y2481804D01*
X-19361704Y2199048D01*
X-19332743Y1905000D01*
X-19361704Y1610952D01*
X-19361705Y1610949D01*
X-19440859Y1350010D01*
X-19447477Y1328196D01*
X-19586763Y1067611D01*
X-19774208Y839208D01*
X-20002611Y651763D01*
X-20002613Y651762D01*
X-20263198Y512476D01*
X-20493315Y442671D01*
X-20545952Y426704D01*
X-20766316Y405000D01*
X-22413684Y405000D01*
X-22634048Y426704D01*
X-22686685Y442671D01*
X-22916802Y512476D01*
X-23177387Y651762D01*
X-23177389Y651763D01*
X-23405792Y839208D01*
X-23593237Y1067611D01*
X-23732523Y1328196D01*
X-23739140Y1350010D01*
X-23818295Y1610949D01*
X-23818296Y1610952D01*
X-23847257Y1905000D01*
X-23818296Y2199048D01*
X-23732523Y2481804D01*
X-23593237Y2742389D01*
X-23405792Y2970792D01*
X-23177389Y3158237D01*
X-22916804Y3297523D01*
X-22916802Y3297524D01*
X-22634051Y3383295D01*
X-22634048Y3383296D01*
X-22413684Y3405000D01*
X-20766316Y3405000D01*
X-20545952Y3383296D01*
X-20545952Y3383296D01*
G37*
G36*
X-35265953Y7843296D02*
X-35213316Y7827329D01*
X-34983199Y7757524D01*
X-34983197Y7757523D01*
X-34722612Y7618237D01*
X-34494209Y7430792D01*
X-34306764Y7202389D01*
X-34306763Y7202387D01*
X-34167477Y6941802D01*
X-34133801Y6830785D01*
X-34081705Y6659048D01*
X-34060001Y6438684D01*
X-34060000Y2291317D01*
X-34081704Y2070953D01*
X-34167477Y1788197D01*
X-34306763Y1527612D01*
X-34494208Y1299209D01*
X-34722611Y1111764D01*
X-34805215Y1067611D01*
X-34983198Y972477D01*
X-35124574Y929591D01*
X-35265951Y886705D01*
X-35527874Y860907D01*
X-35560000Y857743D01*
X-35560001Y857743D01*
X-35854047Y886704D01*
X-35906684Y902671D01*
X-36136801Y972476D01*
X-36397386Y1111762D01*
X-36397388Y1111763D01*
X-36625791Y1299208D01*
X-36813236Y1527611D01*
X-36952522Y1788196D01*
X-37038295Y2070952D01*
X-37059999Y2291316D01*
X-37060000Y6438683D01*
X-37038296Y6659047D01*
X-36952523Y6941803D01*
X-36813237Y7202388D01*
X-36625792Y7430791D01*
X-36397389Y7618236D01*
X-36136804Y7757522D01*
X-36136802Y7757523D01*
X-35995427Y7800408D01*
X-35854049Y7843295D01*
X-35592126Y7869093D01*
X-35560000Y7872257D01*
X-35559999Y7872257D01*
X-35265953Y7843296D01*
X-35265953Y7843296D01*
G37*
G36*
X2913000Y3310000D02*
X1913000Y3310000D01*
X1913000Y4310000D01*
X2913000Y4310000D01*
X2913000Y3310000D01*
X2913000Y3310000D01*
G37*
G36*
X5225845Y4290785D02*
X5316839Y4253094D01*
X5397640Y4199104D01*
X5398734Y4198373D01*
X5468373Y4128734D01*
X5523095Y4046837D01*
X5560785Y3955845D01*
X5580000Y3859245D01*
X5580000Y3760755D01*
X5560785Y3664155D01*
X5523095Y3573163D01*
X5468373Y3491266D01*
X5398734Y3421627D01*
X5398731Y3421625D01*
X5316839Y3366906D01*
X5225845Y3329215D01*
X5129246Y3310000D01*
X5030754Y3310000D01*
X4934155Y3329215D01*
X4843161Y3366906D01*
X4761269Y3421625D01*
X4761266Y3421627D01*
X4691627Y3491266D01*
X4636905Y3573163D01*
X4599215Y3664155D01*
X4580000Y3760755D01*
X4580000Y3859245D01*
X4599215Y3955845D01*
X4636905Y4046837D01*
X4691627Y4128734D01*
X4761266Y4198373D01*
X4762360Y4199104D01*
X4843161Y4253094D01*
X4934155Y4290785D01*
X5030754Y4310000D01*
X5129246Y4310000D01*
X5225845Y4290785D01*
X5225845Y4290785D01*
G37*
G36*
X22598000Y3310000D02*
X21598000Y3310000D01*
X21598000Y4310000D01*
X22598000Y4310000D01*
X22598000Y3310000D01*
X22598000Y3310000D01*
G37*
G36*
X24910845Y4290785D02*
X25001839Y4253094D01*
X25082640Y4199104D01*
X25083734Y4198373D01*
X25153373Y4128734D01*
X25208095Y4046837D01*
X25245785Y3955845D01*
X25265000Y3859245D01*
X25265000Y3760755D01*
X25245785Y3664155D01*
X25208095Y3573163D01*
X25153373Y3491266D01*
X25083734Y3421627D01*
X25083731Y3421625D01*
X25001839Y3366906D01*
X24910845Y3329215D01*
X24814246Y3310000D01*
X24715754Y3310000D01*
X24619155Y3329215D01*
X24528161Y3366906D01*
X24446269Y3421625D01*
X24446266Y3421627D01*
X24376627Y3491266D01*
X24321905Y3573163D01*
X24284215Y3664155D01*
X24265000Y3760755D01*
X24265000Y3859245D01*
X24284215Y3955845D01*
X24321905Y4046837D01*
X24376627Y4128734D01*
X24446266Y4198373D01*
X24447360Y4199104D01*
X24528161Y4253094D01*
X24619155Y4290785D01*
X24715754Y4310000D01*
X24814246Y4310000D01*
X24910845Y4290785D01*
X24910845Y4290785D01*
G37*
G36*
X23640845Y5560785D02*
X23731839Y5523094D01*
X23812640Y5469104D01*
X23813734Y5468373D01*
X23883373Y5398734D01*
X23883375Y5398731D01*
X23905914Y5365000D01*
X23938095Y5316837D01*
X23975785Y5225845D01*
X23995000Y5129245D01*
X23995000Y5030755D01*
X23975785Y4934155D01*
X23938095Y4843163D01*
X23883373Y4761266D01*
X23813734Y4691627D01*
X23813731Y4691625D01*
X23731839Y4636906D01*
X23640845Y4599215D01*
X23544246Y4580000D01*
X23445754Y4580000D01*
X23349155Y4599215D01*
X23258161Y4636906D01*
X23176269Y4691625D01*
X23176266Y4691627D01*
X23106627Y4761266D01*
X23051905Y4843163D01*
X23014215Y4934155D01*
X22995000Y5030755D01*
X22995000Y5129245D01*
X23014215Y5225845D01*
X23051905Y5316837D01*
X23084087Y5365000D01*
X23106625Y5398731D01*
X23106627Y5398734D01*
X23176266Y5468373D01*
X23177360Y5469104D01*
X23258161Y5523094D01*
X23349155Y5560785D01*
X23445754Y5580000D01*
X23544246Y5580000D01*
X23640845Y5560785D01*
X23640845Y5560785D01*
G37*
G36*
X-3664155Y5560785D02*
X-3573161Y5523094D01*
X-3492360Y5469104D01*
X-3491266Y5468373D01*
X-3421627Y5398734D01*
X-3421625Y5398731D01*
X-3399086Y5365000D01*
X-3366905Y5316837D01*
X-3329215Y5225845D01*
X-3310000Y5129245D01*
X-3310000Y5030755D01*
X-3329215Y4934155D01*
X-3366905Y4843163D01*
X-3421627Y4761266D01*
X-3491266Y4691627D01*
X-3491269Y4691625D01*
X-3573161Y4636906D01*
X-3664155Y4599215D01*
X-3760754Y4580000D01*
X-3859246Y4580000D01*
X-3955845Y4599215D01*
X-4046839Y4636906D01*
X-4128731Y4691625D01*
X-4128734Y4691627D01*
X-4198373Y4761266D01*
X-4253095Y4843163D01*
X-4290785Y4934155D01*
X-4310000Y5030755D01*
X-4310000Y5129245D01*
X-4290785Y5225845D01*
X-4253095Y5316837D01*
X-4220913Y5365000D01*
X-4198375Y5398731D01*
X-4198373Y5398734D01*
X-4128734Y5468373D01*
X-4127640Y5469104D01*
X-4046839Y5523094D01*
X-3955845Y5560785D01*
X-3859246Y5580000D01*
X-3760754Y5580000D01*
X-3664155Y5560785D01*
X-3664155Y5560785D01*
G37*
G36*
X3955845Y5560785D02*
X4046839Y5523094D01*
X4127640Y5469104D01*
X4128734Y5468373D01*
X4198373Y5398734D01*
X4198375Y5398731D01*
X4220914Y5365000D01*
X4253095Y5316837D01*
X4290785Y5225845D01*
X4310000Y5129245D01*
X4310000Y5030755D01*
X4290785Y4934155D01*
X4253095Y4843163D01*
X4198373Y4761266D01*
X4128734Y4691627D01*
X4128731Y4691625D01*
X4046839Y4636906D01*
X3955845Y4599215D01*
X3859246Y4580000D01*
X3760754Y4580000D01*
X3664155Y4599215D01*
X3573161Y4636906D01*
X3491269Y4691625D01*
X3491266Y4691627D01*
X3421627Y4761266D01*
X3366905Y4843163D01*
X3329215Y4934155D01*
X3310000Y5030755D01*
X3310000Y5129245D01*
X3329215Y5225845D01*
X3366905Y5316837D01*
X3399087Y5365000D01*
X3421625Y5398731D01*
X3421627Y5398734D01*
X3491266Y5468373D01*
X3492360Y5469104D01*
X3573161Y5523094D01*
X3664155Y5560785D01*
X3760754Y5580000D01*
X3859246Y5580000D01*
X3955845Y5560785D01*
X3955845Y5560785D01*
G37*
G36*
X15385845Y5560785D02*
X15476839Y5523094D01*
X15557640Y5469104D01*
X15558734Y5468373D01*
X15628373Y5398734D01*
X15628375Y5398731D01*
X15650914Y5365000D01*
X15683095Y5316837D01*
X15720785Y5225845D01*
X15740000Y5129245D01*
X15740000Y5030755D01*
X15720785Y4934155D01*
X15683095Y4843163D01*
X15628373Y4761266D01*
X15558734Y4691627D01*
X15558731Y4691625D01*
X15476839Y4636906D01*
X15385845Y4599215D01*
X15289246Y4580000D01*
X15190754Y4580000D01*
X15094155Y4599215D01*
X15003161Y4636906D01*
X14921269Y4691625D01*
X14921266Y4691627D01*
X14851627Y4761266D01*
X14796905Y4843163D01*
X14759215Y4934155D01*
X14740000Y5030755D01*
X14740000Y5129245D01*
X14759215Y5225845D01*
X14796905Y5316837D01*
X14829087Y5365000D01*
X14851625Y5398731D01*
X14851627Y5398734D01*
X14921266Y5468373D01*
X14922360Y5469104D01*
X15003161Y5523094D01*
X15094155Y5560785D01*
X15190754Y5580000D01*
X15289246Y5580000D01*
X15385845Y5560785D01*
X15385845Y5560785D01*
G37*
G36*
X33341029Y8370531D02*
X33341032Y8370530D01*
X33341033Y8370530D01*
X33529534Y8313349D01*
X33529536Y8313348D01*
X33703259Y8220491D01*
X33855527Y8095528D01*
X33980490Y7943260D01*
X33980491Y7943258D01*
X34073348Y7769535D01*
X34119244Y7618236D01*
X34130530Y7581030D01*
X34144999Y7434124D01*
X34145000Y6535877D01*
X34130531Y6388971D01*
X34130530Y6388968D01*
X34130530Y6388967D01*
X34123260Y6365000D01*
X34073348Y6200464D01*
X33980491Y6026741D01*
X33855528Y5874473D01*
X33703260Y5749510D01*
X33703258Y5749509D01*
X33529535Y5656652D01*
X33376122Y5610115D01*
X33341031Y5599470D01*
X33169045Y5582530D01*
X33145000Y5580162D01*
X33144999Y5580162D01*
X32948971Y5599469D01*
X32948968Y5599470D01*
X32948967Y5599470D01*
X32760466Y5656651D01*
X32586743Y5749508D01*
X32586741Y5749509D01*
X32434473Y5874472D01*
X32309510Y6026740D01*
X32216653Y6200463D01*
X32186230Y6300755D01*
X32159471Y6388966D01*
X32159471Y6388967D01*
X32159470Y6388970D01*
X32145001Y6535876D01*
X32145000Y7434123D01*
X32159469Y7581029D01*
X32159470Y7581033D01*
X32216651Y7769534D01*
X32309508Y7943257D01*
X32309509Y7943259D01*
X32434472Y8095527D01*
X32586740Y8220490D01*
X32760463Y8313347D01*
X32760465Y8313348D01*
X32948966Y8370529D01*
X32948969Y8370530D01*
X33120955Y8387470D01*
X33145000Y8389838D01*
X33145001Y8389838D01*
X33341029Y8370531D01*
X33341029Y8370531D01*
G37*
G36*
X-11358971Y8370531D02*
X-11358968Y8370530D01*
X-11358967Y8370530D01*
X-11170466Y8313349D01*
X-11170464Y8313348D01*
X-10996741Y8220491D01*
X-10844473Y8095528D01*
X-10719510Y7943260D01*
X-10719509Y7943258D01*
X-10626652Y7769535D01*
X-10580756Y7618236D01*
X-10569470Y7581030D01*
X-10555001Y7434124D01*
X-10555000Y6535877D01*
X-10569469Y6388971D01*
X-10569470Y6388968D01*
X-10569470Y6388967D01*
X-10576740Y6365000D01*
X-10626652Y6200464D01*
X-10719509Y6026741D01*
X-10844472Y5874473D01*
X-10996740Y5749510D01*
X-10996742Y5749509D01*
X-11170465Y5656652D01*
X-11323878Y5610115D01*
X-11358969Y5599470D01*
X-11530955Y5582530D01*
X-11555000Y5580162D01*
X-11555001Y5580162D01*
X-11751029Y5599469D01*
X-11751032Y5599470D01*
X-11751033Y5599470D01*
X-11939534Y5656651D01*
X-12113257Y5749508D01*
X-12113259Y5749509D01*
X-12265527Y5874472D01*
X-12390490Y6026740D01*
X-12483347Y6200463D01*
X-12513770Y6300755D01*
X-12540529Y6388966D01*
X-12540529Y6388967D01*
X-12540530Y6388970D01*
X-12554999Y6535876D01*
X-12555000Y7434123D01*
X-12540531Y7581029D01*
X-12540530Y7581033D01*
X-12483349Y7769534D01*
X-12390492Y7943257D01*
X-12390491Y7943259D01*
X-12265528Y8095527D01*
X-12113260Y8220490D01*
X-11939537Y8313347D01*
X-11939535Y8313348D01*
X-11751034Y8370529D01*
X-11751031Y8370530D01*
X-11579045Y8387470D01*
X-11555000Y8389838D01*
X-11554999Y8389838D01*
X-11358971Y8370531D01*
X-11358971Y8370531D01*
G37*
G36*
X14115845Y6830785D02*
X14206839Y6793094D01*
X14287640Y6739104D01*
X14288734Y6738373D01*
X14358373Y6668734D01*
X14413095Y6586837D01*
X14450785Y6495845D01*
X14470000Y6399245D01*
X14470000Y6300755D01*
X14450785Y6204155D01*
X14413095Y6113163D01*
X14358373Y6031266D01*
X14288734Y5961627D01*
X14288731Y5961625D01*
X14206839Y5906906D01*
X14115845Y5869215D01*
X14019246Y5850000D01*
X13920754Y5850000D01*
X13824155Y5869215D01*
X13733161Y5906906D01*
X13651269Y5961625D01*
X13651266Y5961627D01*
X13581627Y6031266D01*
X13526905Y6113163D01*
X13489215Y6204155D01*
X13470000Y6300755D01*
X13470000Y6399245D01*
X13489215Y6495845D01*
X13526905Y6586837D01*
X13581627Y6668734D01*
X13651266Y6738373D01*
X13652360Y6739104D01*
X13733161Y6793094D01*
X13824155Y6830785D01*
X13920754Y6850000D01*
X14019246Y6850000D01*
X14115845Y6830785D01*
X14115845Y6830785D01*
G37*
G36*
X17137000Y5850000D02*
X16137000Y5850000D01*
X16137000Y6850000D01*
X17137000Y6850000D01*
X17137000Y5850000D01*
X17137000Y5850000D01*
G37*
G36*
X-4934155Y6830785D02*
X-4843161Y6793094D01*
X-4762360Y6739104D01*
X-4761266Y6738373D01*
X-4691627Y6668734D01*
X-4636905Y6586837D01*
X-4599215Y6495845D01*
X-4580000Y6399245D01*
X-4580000Y6300755D01*
X-4599215Y6204155D01*
X-4636905Y6113163D01*
X-4691627Y6031266D01*
X-4761266Y5961627D01*
X-4761269Y5961625D01*
X-4843161Y5906906D01*
X-4934155Y5869215D01*
X-5030754Y5850000D01*
X-5129246Y5850000D01*
X-5225845Y5869215D01*
X-5316839Y5906906D01*
X-5398731Y5961625D01*
X-5398734Y5961627D01*
X-5468373Y6031266D01*
X-5523095Y6113163D01*
X-5560785Y6204155D01*
X-5580000Y6300755D01*
X-5580000Y6399245D01*
X-5560785Y6495845D01*
X-5523095Y6586837D01*
X-5468373Y6668734D01*
X-5398734Y6738373D01*
X-5397640Y6739104D01*
X-5316839Y6793094D01*
X-5225845Y6830785D01*
X-5129246Y6850000D01*
X-5030754Y6850000D01*
X-4934155Y6830785D01*
X-4934155Y6830785D01*
G37*
G36*
X-1913000Y5850000D02*
X-2913000Y5850000D01*
X-2913000Y6850000D01*
X-1913000Y6850000D01*
X-1913000Y5850000D01*
X-1913000Y5850000D01*
G37*
M02*
