G04 #@! TF.GenerationSoftware,KiCad,Pcbnew,(5.0.1)-3*
G04 #@! TF.CreationDate,2018-12-03T12:15:07+01:00*
G04 #@! TF.ProjectId,drawdio,6472617764696F2E6B696361645F7063,rev?*
G04 #@! TF.SameCoordinates,PX60a6ad0PY525bfc0*
G04 #@! TF.FileFunction,Soldermask,Top*
G04 #@! TF.FilePolarity,Negative*
%FSLAX46Y46*%
G04 Gerber Fmt 4.6, Leading zero omitted, Abs format (unit mm)*
G04 Created by KiCad (PCBNEW (5.0.1)-3) date 03/12/2018 12:15:07*
%MOMM*%
%LPD*%
G01*
G04 APERTURE LIST*
%ADD10C,0.010000*%
%ADD11C,0.150000*%
G04 APERTURE END LIST*
D10*
G04 #@! TO.C,REF\002A\002A*
G36*
X-23071253Y8356600D02*
X-22525941Y8356600D01*
X-22724721Y8155213D01*
X-23054429Y7792309D01*
X-23268849Y7518185D01*
X-23347297Y7414600D01*
X-23441856Y7294471D01*
X-23541950Y7170798D01*
X-23637002Y7056581D01*
X-23716434Y6964819D01*
X-23741532Y6937240D01*
X-23822964Y6849788D01*
X-23753006Y6758644D01*
X-23617564Y6569396D01*
X-23530022Y6429950D01*
X-23475152Y6347714D01*
X-23413876Y6268388D01*
X-23408727Y6262393D01*
X-23339778Y6179419D01*
X-23259253Y6076863D01*
X-23176058Y5966712D01*
X-23099098Y5860953D01*
X-23037281Y5771575D01*
X-23001624Y5714453D01*
X-22966543Y5661404D01*
X-22908014Y5582938D01*
X-22836180Y5491748D01*
X-22761185Y5400528D01*
X-22693172Y5321968D01*
X-22656800Y5282980D01*
X-22632911Y5256919D01*
X-22590637Y5209594D01*
X-22582523Y5200430D01*
X-22520945Y5130800D01*
X-23647400Y5130800D01*
X-23647400Y5209077D01*
X-23664163Y5285605D01*
X-23711393Y5390851D01*
X-23784507Y5516761D01*
X-23878919Y5655284D01*
X-23966458Y5769467D01*
X-24037732Y5861687D01*
X-24103053Y5952731D01*
X-24150223Y6025465D01*
X-24156329Y6036167D01*
X-24196371Y6102566D01*
X-24231658Y6150716D01*
X-24240301Y6159500D01*
X-24274862Y6198184D01*
X-24315085Y6254750D01*
X-24352774Y6302907D01*
X-24383285Y6324513D01*
X-24384586Y6324600D01*
X-24393462Y6299909D01*
X-24400582Y6228619D01*
X-24405736Y6114908D01*
X-24408717Y5962956D01*
X-24409400Y5828039D01*
X-24408716Y5648737D01*
X-24406305Y5512730D01*
X-24401625Y5412525D01*
X-24394137Y5340631D01*
X-24383302Y5289557D01*
X-24368579Y5251812D01*
X-24367756Y5250189D01*
X-24332283Y5190509D01*
X-24300777Y5152382D01*
X-24297906Y5150239D01*
X-24313403Y5144677D01*
X-24372753Y5139738D01*
X-24469014Y5135688D01*
X-24595241Y5132793D01*
X-24744489Y5131318D01*
X-24796206Y5131189D01*
X-25322711Y5130800D01*
X-25293032Y5200650D01*
X-25264859Y5259242D01*
X-25242776Y5294630D01*
X-25238943Y5323858D01*
X-25235343Y5399219D01*
X-25232041Y5516049D01*
X-25229104Y5669683D01*
X-25226601Y5855454D01*
X-25224596Y6068698D01*
X-25223158Y6304749D01*
X-25222353Y6558941D01*
X-25222201Y6730710D01*
X-25222259Y7034689D01*
X-25222530Y7292088D01*
X-25223154Y7507126D01*
X-25224274Y7684022D01*
X-25226031Y7826996D01*
X-25228567Y7940267D01*
X-25232024Y8028055D01*
X-25236543Y8094579D01*
X-25242267Y8144059D01*
X-25249338Y8180714D01*
X-25257896Y8208763D01*
X-25268084Y8232426D01*
X-25273001Y8242301D01*
X-25303756Y8304131D01*
X-25321810Y8343340D01*
X-25323801Y8349271D01*
X-25299665Y8351493D01*
X-25232312Y8353444D01*
X-25129328Y8355016D01*
X-24998294Y8356099D01*
X-24846795Y8356585D01*
X-24813083Y8356600D01*
X-24639940Y8356336D01*
X-24511371Y8355169D01*
X-24421154Y8352536D01*
X-24363063Y8347877D01*
X-24330876Y8340628D01*
X-24318368Y8330228D01*
X-24319314Y8316115D01*
X-24320836Y8312150D01*
X-24354195Y8223327D01*
X-24378261Y8134819D01*
X-24394420Y8035859D01*
X-24404058Y7915679D01*
X-24408560Y7763512D01*
X-24409400Y7623912D01*
X-24409401Y7204096D01*
X-24333201Y7277100D01*
X-24285587Y7327443D01*
X-24259006Y7364722D01*
X-24257000Y7371517D01*
X-24241863Y7397450D01*
X-24202372Y7450872D01*
X-24147412Y7520855D01*
X-24085868Y7596471D01*
X-24026623Y7666791D01*
X-23978561Y7720886D01*
X-23951761Y7747000D01*
X-23929439Y7774266D01*
X-23891064Y7830370D01*
X-23863198Y7874000D01*
X-23804995Y7961702D01*
X-23742049Y8048302D01*
X-23719701Y8076638D01*
X-23674987Y8143264D01*
X-23649592Y8204357D01*
X-23647400Y8220610D01*
X-23646878Y8264323D01*
X-23641209Y8297498D01*
X-23624238Y8321588D01*
X-23589811Y8338045D01*
X-23531774Y8348323D01*
X-23443972Y8353873D01*
X-23320250Y8356149D01*
X-23154455Y8356604D01*
X-23071253Y8356600D01*
X-23071253Y8356600D01*
G37*
X-23071253Y8356600D02*
X-22525941Y8356600D01*
X-22724721Y8155213D01*
X-23054429Y7792309D01*
X-23268849Y7518185D01*
X-23347297Y7414600D01*
X-23441856Y7294471D01*
X-23541950Y7170798D01*
X-23637002Y7056581D01*
X-23716434Y6964819D01*
X-23741532Y6937240D01*
X-23822964Y6849788D01*
X-23753006Y6758644D01*
X-23617564Y6569396D01*
X-23530022Y6429950D01*
X-23475152Y6347714D01*
X-23413876Y6268388D01*
X-23408727Y6262393D01*
X-23339778Y6179419D01*
X-23259253Y6076863D01*
X-23176058Y5966712D01*
X-23099098Y5860953D01*
X-23037281Y5771575D01*
X-23001624Y5714453D01*
X-22966543Y5661404D01*
X-22908014Y5582938D01*
X-22836180Y5491748D01*
X-22761185Y5400528D01*
X-22693172Y5321968D01*
X-22656800Y5282980D01*
X-22632911Y5256919D01*
X-22590637Y5209594D01*
X-22582523Y5200430D01*
X-22520945Y5130800D01*
X-23647400Y5130800D01*
X-23647400Y5209077D01*
X-23664163Y5285605D01*
X-23711393Y5390851D01*
X-23784507Y5516761D01*
X-23878919Y5655284D01*
X-23966458Y5769467D01*
X-24037732Y5861687D01*
X-24103053Y5952731D01*
X-24150223Y6025465D01*
X-24156329Y6036167D01*
X-24196371Y6102566D01*
X-24231658Y6150716D01*
X-24240301Y6159500D01*
X-24274862Y6198184D01*
X-24315085Y6254750D01*
X-24352774Y6302907D01*
X-24383285Y6324513D01*
X-24384586Y6324600D01*
X-24393462Y6299909D01*
X-24400582Y6228619D01*
X-24405736Y6114908D01*
X-24408717Y5962956D01*
X-24409400Y5828039D01*
X-24408716Y5648737D01*
X-24406305Y5512730D01*
X-24401625Y5412525D01*
X-24394137Y5340631D01*
X-24383302Y5289557D01*
X-24368579Y5251812D01*
X-24367756Y5250189D01*
X-24332283Y5190509D01*
X-24300777Y5152382D01*
X-24297906Y5150239D01*
X-24313403Y5144677D01*
X-24372753Y5139738D01*
X-24469014Y5135688D01*
X-24595241Y5132793D01*
X-24744489Y5131318D01*
X-24796206Y5131189D01*
X-25322711Y5130800D01*
X-25293032Y5200650D01*
X-25264859Y5259242D01*
X-25242776Y5294630D01*
X-25238943Y5323858D01*
X-25235343Y5399219D01*
X-25232041Y5516049D01*
X-25229104Y5669683D01*
X-25226601Y5855454D01*
X-25224596Y6068698D01*
X-25223158Y6304749D01*
X-25222353Y6558941D01*
X-25222201Y6730710D01*
X-25222259Y7034689D01*
X-25222530Y7292088D01*
X-25223154Y7507126D01*
X-25224274Y7684022D01*
X-25226031Y7826996D01*
X-25228567Y7940267D01*
X-25232024Y8028055D01*
X-25236543Y8094579D01*
X-25242267Y8144059D01*
X-25249338Y8180714D01*
X-25257896Y8208763D01*
X-25268084Y8232426D01*
X-25273001Y8242301D01*
X-25303756Y8304131D01*
X-25321810Y8343340D01*
X-25323801Y8349271D01*
X-25299665Y8351493D01*
X-25232312Y8353444D01*
X-25129328Y8355016D01*
X-24998294Y8356099D01*
X-24846795Y8356585D01*
X-24813083Y8356600D01*
X-24639940Y8356336D01*
X-24511371Y8355169D01*
X-24421154Y8352536D01*
X-24363063Y8347877D01*
X-24330876Y8340628D01*
X-24318368Y8330228D01*
X-24319314Y8316115D01*
X-24320836Y8312150D01*
X-24354195Y8223327D01*
X-24378261Y8134819D01*
X-24394420Y8035859D01*
X-24404058Y7915679D01*
X-24408560Y7763512D01*
X-24409400Y7623912D01*
X-24409401Y7204096D01*
X-24333201Y7277100D01*
X-24285587Y7327443D01*
X-24259006Y7364722D01*
X-24257000Y7371517D01*
X-24241863Y7397450D01*
X-24202372Y7450872D01*
X-24147412Y7520855D01*
X-24085868Y7596471D01*
X-24026623Y7666791D01*
X-23978561Y7720886D01*
X-23951761Y7747000D01*
X-23929439Y7774266D01*
X-23891064Y7830370D01*
X-23863198Y7874000D01*
X-23804995Y7961702D01*
X-23742049Y8048302D01*
X-23719701Y8076638D01*
X-23674987Y8143264D01*
X-23649592Y8204357D01*
X-23647400Y8220610D01*
X-23646878Y8264323D01*
X-23641209Y8297498D01*
X-23624238Y8321588D01*
X-23589811Y8338045D01*
X-23531774Y8348323D01*
X-23443972Y8353873D01*
X-23320250Y8356149D01*
X-23154455Y8356604D01*
X-23071253Y8356600D01*
G36*
X-21488400Y6392955D02*
X-21488179Y6121472D01*
X-21487417Y5896382D01*
X-21485974Y5713279D01*
X-21483706Y5567760D01*
X-21480469Y5455417D01*
X-21476122Y5371845D01*
X-21470520Y5312641D01*
X-21463522Y5273397D01*
X-21454984Y5249708D01*
X-21451108Y5243605D01*
X-21424822Y5206057D01*
X-21414109Y5177915D01*
X-21424290Y5157826D01*
X-21460688Y5144437D01*
X-21528624Y5136395D01*
X-21633422Y5132347D01*
X-21780402Y5130940D01*
X-21894800Y5130800D01*
X-22045082Y5131485D01*
X-22176273Y5133392D01*
X-22280573Y5136298D01*
X-22350181Y5139983D01*
X-22377295Y5144224D01*
X-22377400Y5144512D01*
X-22366845Y5173546D01*
X-22340274Y5230491D01*
X-22326600Y5257800D01*
X-22313734Y5285240D01*
X-22303241Y5315606D01*
X-22294880Y5354080D01*
X-22288409Y5405845D01*
X-22283589Y5476082D01*
X-22280178Y5569973D01*
X-22277935Y5692699D01*
X-22276619Y5849441D01*
X-22275990Y6045383D01*
X-22275805Y6285704D01*
X-22275800Y6350250D01*
X-22276053Y6607731D01*
X-22276929Y6819251D01*
X-22278604Y6989649D01*
X-22281252Y7123762D01*
X-22285050Y7226429D01*
X-22290173Y7302487D01*
X-22296797Y7356774D01*
X-22305097Y7394128D01*
X-22314553Y7418062D01*
X-22353305Y7493000D01*
X-21488400Y7493000D01*
X-21488400Y6392955D01*
X-21488400Y6392955D01*
G37*
X-21488400Y6392955D02*
X-21488179Y6121472D01*
X-21487417Y5896382D01*
X-21485974Y5713279D01*
X-21483706Y5567760D01*
X-21480469Y5455417D01*
X-21476122Y5371845D01*
X-21470520Y5312641D01*
X-21463522Y5273397D01*
X-21454984Y5249708D01*
X-21451108Y5243605D01*
X-21424822Y5206057D01*
X-21414109Y5177915D01*
X-21424290Y5157826D01*
X-21460688Y5144437D01*
X-21528624Y5136395D01*
X-21633422Y5132347D01*
X-21780402Y5130940D01*
X-21894800Y5130800D01*
X-22045082Y5131485D01*
X-22176273Y5133392D01*
X-22280573Y5136298D01*
X-22350181Y5139983D01*
X-22377295Y5144224D01*
X-22377400Y5144512D01*
X-22366845Y5173546D01*
X-22340274Y5230491D01*
X-22326600Y5257800D01*
X-22313734Y5285240D01*
X-22303241Y5315606D01*
X-22294880Y5354080D01*
X-22288409Y5405845D01*
X-22283589Y5476082D01*
X-22280178Y5569973D01*
X-22277935Y5692699D01*
X-22276619Y5849441D01*
X-22275990Y6045383D01*
X-22275805Y6285704D01*
X-22275800Y6350250D01*
X-22276053Y6607731D01*
X-22276929Y6819251D01*
X-22278604Y6989649D01*
X-22281252Y7123762D01*
X-22285050Y7226429D01*
X-22290173Y7302487D01*
X-22296797Y7356774D01*
X-22305097Y7394128D01*
X-22314553Y7418062D01*
X-22353305Y7493000D01*
X-21488400Y7493000D01*
X-21488400Y6392955D01*
G36*
X-21729059Y9259040D02*
X-21611455Y9192605D01*
X-21517977Y9089955D01*
X-21474188Y9003876D01*
X-21443578Y8865386D01*
X-21452679Y8727409D01*
X-21500027Y8605916D01*
X-21512412Y8587150D01*
X-21602851Y8499592D01*
X-21721729Y8439447D01*
X-21854667Y8409582D01*
X-21987287Y8412866D01*
X-22105210Y8452168D01*
X-22125994Y8464756D01*
X-22208263Y8543606D01*
X-22276086Y8652230D01*
X-22318253Y8769705D01*
X-22326600Y8839201D01*
X-22307326Y8948425D01*
X-22256810Y9062890D01*
X-22186018Y9161842D01*
X-22130358Y9210705D01*
X-21998139Y9271124D01*
X-21861163Y9286224D01*
X-21729059Y9259040D01*
X-21729059Y9259040D01*
G37*
X-21729059Y9259040D02*
X-21611455Y9192605D01*
X-21517977Y9089955D01*
X-21474188Y9003876D01*
X-21443578Y8865386D01*
X-21452679Y8727409D01*
X-21500027Y8605916D01*
X-21512412Y8587150D01*
X-21602851Y8499592D01*
X-21721729Y8439447D01*
X-21854667Y8409582D01*
X-21987287Y8412866D01*
X-22105210Y8452168D01*
X-22125994Y8464756D01*
X-22208263Y8543606D01*
X-22276086Y8652230D01*
X-22318253Y8769705D01*
X-22326600Y8839201D01*
X-22307326Y8948425D01*
X-22256810Y9062890D01*
X-22186018Y9161842D01*
X-22130358Y9210705D01*
X-21998139Y9271124D01*
X-21861163Y9286224D01*
X-21729059Y9259040D01*
D11*
G36*
X34064048Y-8046704D02*
X34064051Y-8046705D01*
X34346802Y-8132476D01*
X34346804Y-8132477D01*
X34607389Y-8271763D01*
X34835792Y-8459208D01*
X35023237Y-8687611D01*
X35101947Y-8834866D01*
X35162524Y-8948198D01*
X35221391Y-9142257D01*
X35248296Y-9230952D01*
X35277257Y-9525000D01*
X35248296Y-9819048D01*
X35162523Y-10101804D01*
X35023237Y-10362389D01*
X34835792Y-10590792D01*
X34607389Y-10778237D01*
X34607387Y-10778238D01*
X34346802Y-10917524D01*
X34116685Y-10987329D01*
X34064048Y-11003296D01*
X33843684Y-11025000D01*
X32196316Y-11025000D01*
X31975952Y-11003296D01*
X31923315Y-10987329D01*
X31693198Y-10917524D01*
X31432613Y-10778238D01*
X31432611Y-10778237D01*
X31204208Y-10590792D01*
X31016763Y-10362389D01*
X30877477Y-10101804D01*
X30791704Y-9819048D01*
X30762743Y-9525000D01*
X30791704Y-9230952D01*
X30818609Y-9142257D01*
X30877476Y-8948198D01*
X30938053Y-8834866D01*
X31016763Y-8687611D01*
X31204208Y-8459208D01*
X31432611Y-8271763D01*
X31693196Y-8132477D01*
X31693198Y-8132476D01*
X31975949Y-8046705D01*
X31975952Y-8046704D01*
X32196316Y-8025000D01*
X33843684Y-8025000D01*
X34064048Y-8046704D01*
X34064048Y-8046704D01*
G37*
G36*
X-20545952Y-8046704D02*
X-20545949Y-8046705D01*
X-20263198Y-8132476D01*
X-20263196Y-8132477D01*
X-20002611Y-8271763D01*
X-19774208Y-8459208D01*
X-19586763Y-8687611D01*
X-19508053Y-8834866D01*
X-19447476Y-8948198D01*
X-19388609Y-9142257D01*
X-19361704Y-9230952D01*
X-19332743Y-9525000D01*
X-19361704Y-9819048D01*
X-19447477Y-10101804D01*
X-19586763Y-10362389D01*
X-19774208Y-10590792D01*
X-20002611Y-10778237D01*
X-20002613Y-10778238D01*
X-20263198Y-10917524D01*
X-20493315Y-10987329D01*
X-20545952Y-11003296D01*
X-20766316Y-11025000D01*
X-22413684Y-11025000D01*
X-22634048Y-11003296D01*
X-22686685Y-10987329D01*
X-22916802Y-10917524D01*
X-23177387Y-10778238D01*
X-23177389Y-10778237D01*
X-23405792Y-10590792D01*
X-23593237Y-10362389D01*
X-23732523Y-10101804D01*
X-23818296Y-9819048D01*
X-23847257Y-9525000D01*
X-23818296Y-9230952D01*
X-23791391Y-9142257D01*
X-23732524Y-8948198D01*
X-23671947Y-8834866D01*
X-23593237Y-8687611D01*
X-23405792Y-8459208D01*
X-23177389Y-8271763D01*
X-22916804Y-8132477D01*
X-22916802Y-8132476D01*
X-22634051Y-8046705D01*
X-22634048Y-8046704D01*
X-22413684Y-8025000D01*
X-20766316Y-8025000D01*
X-20545952Y-8046704D01*
X-20545952Y-8046704D01*
G37*
G36*
X-1341120Y-8813800D02*
X-1415510Y-8813800D01*
X-1439896Y-8816202D01*
X-1463345Y-8823315D01*
X-1484956Y-8834866D01*
X-1503898Y-8850412D01*
X-1519444Y-8869354D01*
X-1530995Y-8890965D01*
X-1538108Y-8914414D01*
X-1540510Y-8938800D01*
X-1540510Y-10651490D01*
X-3539490Y-10651490D01*
X-3539490Y-8938800D01*
X-3541892Y-8914414D01*
X-3549005Y-8890965D01*
X-3560556Y-8869354D01*
X-3576102Y-8850412D01*
X-3595044Y-8834866D01*
X-3616655Y-8823315D01*
X-3640104Y-8816202D01*
X-3664490Y-8813800D01*
X-3738880Y-8813800D01*
X-3340100Y-5313680D01*
X-1739900Y-5313680D01*
X-1341120Y-8813800D01*
X-1341120Y-8813800D01*
G37*
G36*
X1833880Y-8686800D02*
X1759490Y-8686800D01*
X1735104Y-8689202D01*
X1711655Y-8696315D01*
X1690044Y-8707866D01*
X1671102Y-8723412D01*
X1655556Y-8742354D01*
X1644005Y-8763965D01*
X1636892Y-8787414D01*
X1634490Y-8811800D01*
X1634490Y-10524490D01*
X-364490Y-10524490D01*
X-364490Y-8811800D01*
X-366892Y-8787414D01*
X-374005Y-8763965D01*
X-385556Y-8742354D01*
X-401102Y-8723412D01*
X-420044Y-8707866D01*
X-441655Y-8696315D01*
X-465104Y-8689202D01*
X-489490Y-8686800D01*
X-563880Y-8686800D01*
X-165100Y-5186680D01*
X1435100Y-5186680D01*
X1833880Y-8686800D01*
X1833880Y-8686800D01*
G37*
G36*
X-4516120Y-8686800D02*
X-4590510Y-8686800D01*
X-4614896Y-8689202D01*
X-4638345Y-8696315D01*
X-4659956Y-8707866D01*
X-4678898Y-8723412D01*
X-4694444Y-8742354D01*
X-4705995Y-8763965D01*
X-4713108Y-8787414D01*
X-4715510Y-8811800D01*
X-4715510Y-10524490D01*
X-6714490Y-10524490D01*
X-6714490Y-8811800D01*
X-6716892Y-8787414D01*
X-6724005Y-8763965D01*
X-6735556Y-8742354D01*
X-6751102Y-8723412D01*
X-6770044Y-8707866D01*
X-6791655Y-8696315D01*
X-6815104Y-8689202D01*
X-6839490Y-8686800D01*
X-6913880Y-8686800D01*
X-6515100Y-5186680D01*
X-4914900Y-5186680D01*
X-4516120Y-8686800D01*
X-4516120Y-8686800D01*
G37*
G36*
X-7691120Y-8686800D02*
X-7765510Y-8686800D01*
X-7789896Y-8689202D01*
X-7813345Y-8696315D01*
X-7834956Y-8707866D01*
X-7853898Y-8723412D01*
X-7869444Y-8742354D01*
X-7880995Y-8763965D01*
X-7888108Y-8787414D01*
X-7890510Y-8811800D01*
X-7890510Y-10524490D01*
X-9889490Y-10524490D01*
X-9889490Y-8811800D01*
X-9891892Y-8787414D01*
X-9899005Y-8763965D01*
X-9910556Y-8742354D01*
X-9926102Y-8723412D01*
X-9945044Y-8707866D01*
X-9966655Y-8696315D01*
X-9990104Y-8689202D01*
X-10014490Y-8686800D01*
X-10088880Y-8686800D01*
X-9690100Y-5186680D01*
X-8089900Y-5186680D01*
X-7691120Y-8686800D01*
X-7691120Y-8686800D01*
G37*
G36*
X5008880Y-8608060D02*
X4934490Y-8608060D01*
X4910104Y-8610462D01*
X4886655Y-8617575D01*
X4865044Y-8629126D01*
X4846102Y-8644672D01*
X4830556Y-8663614D01*
X4819005Y-8685225D01*
X4811892Y-8708674D01*
X4809490Y-8733060D01*
X4809490Y-10445750D01*
X2810510Y-10445750D01*
X2810510Y-8733060D01*
X2808108Y-8708674D01*
X2800995Y-8685225D01*
X2789444Y-8663614D01*
X2773898Y-8644672D01*
X2754956Y-8629126D01*
X2733345Y-8617575D01*
X2709896Y-8610462D01*
X2685510Y-8608060D01*
X2611120Y-8608060D01*
X3009900Y-5107940D01*
X4610100Y-5107940D01*
X5008880Y-8608060D01*
X5008880Y-8608060D01*
G37*
G36*
X8183880Y-8608060D02*
X8109490Y-8608060D01*
X8085104Y-8610462D01*
X8061655Y-8617575D01*
X8040044Y-8629126D01*
X8021102Y-8644672D01*
X8005556Y-8663614D01*
X7994005Y-8685225D01*
X7986892Y-8708674D01*
X7984490Y-8733060D01*
X7984490Y-10445750D01*
X5985510Y-10445750D01*
X5985510Y-8733060D01*
X5983108Y-8708674D01*
X5975995Y-8685225D01*
X5964444Y-8663614D01*
X5948898Y-8644672D01*
X5929956Y-8629126D01*
X5908345Y-8617575D01*
X5884896Y-8610462D01*
X5860510Y-8608060D01*
X5786120Y-8608060D01*
X6184900Y-5107940D01*
X7785100Y-5107940D01*
X8183880Y-8608060D01*
X8183880Y-8608060D01*
G37*
G36*
X-35265953Y-2156704D02*
X-35213316Y-2172671D01*
X-34983199Y-2242476D01*
X-34983197Y-2242477D01*
X-34722612Y-2381763D01*
X-34494209Y-2569208D01*
X-34306764Y-2797611D01*
X-34306763Y-2797613D01*
X-34167477Y-3058198D01*
X-34127921Y-3188599D01*
X-34081705Y-3340952D01*
X-34060001Y-3561316D01*
X-34060000Y-7708683D01*
X-34081704Y-7929047D01*
X-34081705Y-7929050D01*
X-34143413Y-8132477D01*
X-34167477Y-8211803D01*
X-34306763Y-8472388D01*
X-34494208Y-8700791D01*
X-34722611Y-8888236D01*
X-34817209Y-8938800D01*
X-34983198Y-9027523D01*
X-35124573Y-9070408D01*
X-35265951Y-9113295D01*
X-35527874Y-9139093D01*
X-35560000Y-9142257D01*
X-35560001Y-9142257D01*
X-35854047Y-9113296D01*
X-35906684Y-9097329D01*
X-36136801Y-9027524D01*
X-36285213Y-8948196D01*
X-36397388Y-8888237D01*
X-36625791Y-8700792D01*
X-36813236Y-8472389D01*
X-36952522Y-8211804D01*
X-37002604Y-8046704D01*
X-37038294Y-7929051D01*
X-37038294Y-7929050D01*
X-37038295Y-7929048D01*
X-37059999Y-7708684D01*
X-37060000Y-3561317D01*
X-37038296Y-3340953D01*
X-36952523Y-3058197D01*
X-36813237Y-2797612D01*
X-36625792Y-2569209D01*
X-36397389Y-2381764D01*
X-36136804Y-2242478D01*
X-36136802Y-2242477D01*
X-35995426Y-2199591D01*
X-35854049Y-2156705D01*
X-35592126Y-2130907D01*
X-35560000Y-2127743D01*
X-35559999Y-2127743D01*
X-35265953Y-2156704D01*
X-35265953Y-2156704D01*
G37*
G36*
X12980000Y-8420000D02*
X9880000Y-8420000D01*
X9880000Y-6820000D01*
X12980000Y-6820000D01*
X12980000Y-8420000D01*
X12980000Y-8420000D01*
G37*
G36*
X21870000Y-8420000D02*
X18770000Y-8420000D01*
X18770000Y-6820000D01*
X21870000Y-6820000D01*
X21870000Y-8420000D01*
X21870000Y-8420000D01*
G37*
G36*
X-46760000Y5365001D02*
X-46760000Y-6635001D01*
X-49760000Y-7635001D01*
X-49760000Y6365001D01*
X-46760000Y5365001D01*
X-46760000Y5365001D01*
G37*
G36*
X38965000Y-7635001D02*
X35965000Y-6635001D01*
X35965000Y5365001D01*
X38965000Y6365001D01*
X38965000Y-7635001D01*
X38965000Y-7635001D01*
G37*
G36*
X21870000Y-5880000D02*
X18770000Y-5880000D01*
X18770000Y-4280000D01*
X21870000Y-4280000D01*
X21870000Y-5880000D01*
X21870000Y-5880000D01*
G37*
G36*
X12980000Y-5880000D02*
X9880000Y-5880000D01*
X9880000Y-4280000D01*
X12980000Y-4280000D01*
X12980000Y-5880000D01*
X12980000Y-5880000D01*
G37*
G36*
X25673352Y-3040743D02*
X25818941Y-3101048D01*
X25949973Y-3188601D01*
X26061399Y-3300027D01*
X26148952Y-3431059D01*
X26209257Y-3576648D01*
X26240000Y-3731205D01*
X26240000Y-3888795D01*
X26209257Y-4043352D01*
X26148952Y-4188941D01*
X26061399Y-4319973D01*
X25949973Y-4431399D01*
X25818941Y-4518952D01*
X25673352Y-4579257D01*
X25518795Y-4610000D01*
X25361205Y-4610000D01*
X25206648Y-4579257D01*
X25061059Y-4518952D01*
X24930027Y-4431399D01*
X24818601Y-4319973D01*
X24731048Y-4188941D01*
X24670743Y-4043352D01*
X24640000Y-3888795D01*
X24640000Y-3731205D01*
X24670743Y-3576648D01*
X24731048Y-3431059D01*
X24818601Y-3300027D01*
X24930027Y-3188601D01*
X25061059Y-3101048D01*
X25206648Y-3040743D01*
X25361205Y-3010000D01*
X25518795Y-3010000D01*
X25673352Y-3040743D01*
X25673352Y-3040743D01*
G37*
G36*
X28740000Y-4610000D02*
X27140000Y-4610000D01*
X27140000Y-3010000D01*
X28740000Y-3010000D01*
X28740000Y-4610000D01*
X28740000Y-4610000D01*
G37*
G36*
X-13170000Y-4610000D02*
X-14770000Y-4610000D01*
X-14770000Y-3010000D01*
X-13170000Y-3010000D01*
X-13170000Y-4610000D01*
X-13170000Y-4610000D01*
G37*
G36*
X-16236648Y-3040743D02*
X-16091059Y-3101048D01*
X-15960027Y-3188601D01*
X-15848601Y-3300027D01*
X-15761048Y-3431059D01*
X-15700743Y-3576648D01*
X-15670000Y-3731205D01*
X-15670000Y-3888795D01*
X-15700743Y-4043352D01*
X-15761048Y-4188941D01*
X-15848601Y-4319973D01*
X-15960027Y-4431399D01*
X-16091059Y-4518952D01*
X-16236648Y-4579257D01*
X-16391205Y-4610000D01*
X-16548795Y-4610000D01*
X-16703352Y-4579257D01*
X-16848941Y-4518952D01*
X-16979973Y-4431399D01*
X-17091399Y-4319973D01*
X-17178952Y-4188941D01*
X-17239257Y-4043352D01*
X-17270000Y-3888795D01*
X-17270000Y-3731205D01*
X-17239257Y-3576648D01*
X-17178952Y-3431059D01*
X-17091399Y-3300027D01*
X-16979973Y-3188601D01*
X-16848941Y-3101048D01*
X-16703352Y-3040743D01*
X-16548795Y-3010000D01*
X-16391205Y-3010000D01*
X-16236648Y-3040743D01*
X-16236648Y-3040743D01*
G37*
G36*
X-1540510Y-362680D02*
X-1538108Y-387066D01*
X-1530995Y-410515D01*
X-1519444Y-432126D01*
X-1503898Y-451068D01*
X-1484956Y-466614D01*
X-1463345Y-478165D01*
X-1439896Y-485278D01*
X-1415510Y-487680D01*
X-1341120Y-487680D01*
X-1739900Y-3987800D01*
X-3340100Y-3987800D01*
X-3738880Y-487680D01*
X-3664490Y-487680D01*
X-3640104Y-485278D01*
X-3616655Y-478165D01*
X-3595044Y-466614D01*
X-3576102Y-451068D01*
X-3560556Y-432126D01*
X-3549005Y-410515D01*
X-3541892Y-387066D01*
X-3539490Y-362680D01*
X-3539490Y1350010D01*
X-1540510Y1350010D01*
X-1540510Y-362680D01*
X-1540510Y-362680D01*
G37*
G36*
X-7890510Y-235680D02*
X-7888108Y-260066D01*
X-7880995Y-283515D01*
X-7869444Y-305126D01*
X-7853898Y-324068D01*
X-7834956Y-339614D01*
X-7813345Y-351165D01*
X-7789896Y-358278D01*
X-7765510Y-360680D01*
X-7691120Y-360680D01*
X-8089900Y-3860800D01*
X-9690100Y-3860800D01*
X-10088880Y-360680D01*
X-10014490Y-360680D01*
X-9990104Y-358278D01*
X-9966655Y-351165D01*
X-9945044Y-339614D01*
X-9926102Y-324068D01*
X-9910556Y-305126D01*
X-9899005Y-283515D01*
X-9891892Y-260066D01*
X-9889490Y-235680D01*
X-9889490Y1477010D01*
X-7890510Y1477010D01*
X-7890510Y-235680D01*
X-7890510Y-235680D01*
G37*
G36*
X-4715510Y-235680D02*
X-4713108Y-260066D01*
X-4705995Y-283515D01*
X-4694444Y-305126D01*
X-4678898Y-324068D01*
X-4659956Y-339614D01*
X-4638345Y-351165D01*
X-4614896Y-358278D01*
X-4590510Y-360680D01*
X-4516120Y-360680D01*
X-4914900Y-3860800D01*
X-6515100Y-3860800D01*
X-6913880Y-360680D01*
X-6839490Y-360680D01*
X-6815104Y-358278D01*
X-6791655Y-351165D01*
X-6770044Y-339614D01*
X-6751102Y-324068D01*
X-6735556Y-305126D01*
X-6724005Y-283515D01*
X-6716892Y-260066D01*
X-6714490Y-235680D01*
X-6714490Y1477010D01*
X-4715510Y1477010D01*
X-4715510Y-235680D01*
X-4715510Y-235680D01*
G37*
G36*
X1634490Y-235680D02*
X1636892Y-260066D01*
X1644005Y-283515D01*
X1655556Y-305126D01*
X1671102Y-324068D01*
X1690044Y-339614D01*
X1711655Y-351165D01*
X1735104Y-358278D01*
X1759490Y-360680D01*
X1833880Y-360680D01*
X1435100Y-3860800D01*
X-165100Y-3860800D01*
X-563880Y-360680D01*
X-489490Y-360680D01*
X-465104Y-358278D01*
X-441655Y-351165D01*
X-420044Y-339614D01*
X-401102Y-324068D01*
X-385556Y-305126D01*
X-374005Y-283515D01*
X-366892Y-260066D01*
X-364490Y-235680D01*
X-364490Y1477010D01*
X1634490Y1477010D01*
X1634490Y-235680D01*
X1634490Y-235680D01*
G37*
G36*
X7984490Y-156940D02*
X7986892Y-181326D01*
X7994005Y-204775D01*
X8005556Y-226386D01*
X8021102Y-245328D01*
X8040044Y-260874D01*
X8061655Y-272425D01*
X8085104Y-279538D01*
X8109490Y-281940D01*
X8183880Y-281940D01*
X7785100Y-3782060D01*
X6184900Y-3782060D01*
X5786120Y-281940D01*
X5860510Y-281940D01*
X5884896Y-279538D01*
X5908345Y-272425D01*
X5929956Y-260874D01*
X5948898Y-245328D01*
X5964444Y-226386D01*
X5975995Y-204775D01*
X5983108Y-181326D01*
X5985510Y-156940D01*
X5985510Y1555750D01*
X7984490Y1555750D01*
X7984490Y-156940D01*
X7984490Y-156940D01*
G37*
G36*
X4809490Y-156940D02*
X4811892Y-181326D01*
X4819005Y-204775D01*
X4830556Y-226386D01*
X4846102Y-245328D01*
X4865044Y-260874D01*
X4886655Y-272425D01*
X4910104Y-279538D01*
X4934490Y-281940D01*
X5008880Y-281940D01*
X4610100Y-3782060D01*
X3009900Y-3782060D01*
X2611120Y-281940D01*
X2685510Y-281940D01*
X2709896Y-279538D01*
X2733345Y-272425D01*
X2754956Y-260874D01*
X2773898Y-245328D01*
X2789444Y-226386D01*
X2800995Y-204775D01*
X2808108Y-181326D01*
X2810510Y-156940D01*
X2810510Y1555750D01*
X4809490Y1555750D01*
X4809490Y-156940D01*
X4809490Y-156940D01*
G37*
G36*
X21870000Y-3340000D02*
X18770000Y-3340000D01*
X18770000Y-1740000D01*
X21870000Y-1740000D01*
X21870000Y-3340000D01*
X21870000Y-3340000D01*
G37*
G36*
X12980000Y-3340000D02*
X9880000Y-3340000D01*
X9880000Y-1740000D01*
X12980000Y-1740000D01*
X12980000Y-3340000D01*
X12980000Y-3340000D01*
G37*
G36*
X21870000Y-800000D02*
X18770000Y-800000D01*
X18770000Y800000D01*
X21870000Y800000D01*
X21870000Y-800000D01*
X21870000Y-800000D01*
G37*
G36*
X12980000Y-800000D02*
X9880000Y-800000D01*
X9880000Y800000D01*
X12980000Y800000D01*
X12980000Y-800000D01*
X12980000Y-800000D01*
G37*
G36*
X-20545952Y3383296D02*
X-20545949Y3383295D01*
X-20263198Y3297524D01*
X-20263196Y3297523D01*
X-20002611Y3158237D01*
X-19774208Y2970792D01*
X-19586763Y2742389D01*
X-19447477Y2481804D01*
X-19361704Y2199048D01*
X-19332743Y1905000D01*
X-19361704Y1610952D01*
X-19361705Y1610949D01*
X-19440859Y1350010D01*
X-19447477Y1328196D01*
X-19586763Y1067611D01*
X-19774208Y839208D01*
X-20002611Y651763D01*
X-20002613Y651762D01*
X-20263198Y512476D01*
X-20493315Y442671D01*
X-20545952Y426704D01*
X-20766316Y405000D01*
X-22413684Y405000D01*
X-22634048Y426704D01*
X-22686685Y442671D01*
X-22916802Y512476D01*
X-23177387Y651762D01*
X-23177389Y651763D01*
X-23405792Y839208D01*
X-23593237Y1067611D01*
X-23732523Y1328196D01*
X-23739140Y1350010D01*
X-23818295Y1610949D01*
X-23818296Y1610952D01*
X-23847257Y1905000D01*
X-23818296Y2199048D01*
X-23732523Y2481804D01*
X-23593237Y2742389D01*
X-23405792Y2970792D01*
X-23177389Y3158237D01*
X-22916804Y3297523D01*
X-22916802Y3297524D01*
X-22634051Y3383295D01*
X-22634048Y3383296D01*
X-22413684Y3405000D01*
X-20766316Y3405000D01*
X-20545952Y3383296D01*
X-20545952Y3383296D01*
G37*
G36*
X34064048Y3383296D02*
X34064051Y3383295D01*
X34346802Y3297524D01*
X34346804Y3297523D01*
X34607389Y3158237D01*
X34835792Y2970792D01*
X35023237Y2742389D01*
X35162523Y2481804D01*
X35248296Y2199048D01*
X35277257Y1905000D01*
X35248296Y1610952D01*
X35248295Y1610949D01*
X35169141Y1350010D01*
X35162523Y1328196D01*
X35023237Y1067611D01*
X34835792Y839208D01*
X34607389Y651763D01*
X34607387Y651762D01*
X34346802Y512476D01*
X34116685Y442671D01*
X34064048Y426704D01*
X33843684Y405000D01*
X32196316Y405000D01*
X31975952Y426704D01*
X31923315Y442671D01*
X31693198Y512476D01*
X31432613Y651762D01*
X31432611Y651763D01*
X31204208Y839208D01*
X31016763Y1067611D01*
X30877477Y1328196D01*
X30870860Y1350010D01*
X30791705Y1610949D01*
X30791704Y1610952D01*
X30762743Y1905000D01*
X30791704Y2199048D01*
X30877477Y2481804D01*
X31016763Y2742389D01*
X31204208Y2970792D01*
X31432611Y3158237D01*
X31693196Y3297523D01*
X31693198Y3297524D01*
X31975949Y3383295D01*
X31975952Y3383296D01*
X32196316Y3405000D01*
X33843684Y3405000D01*
X34064048Y3383296D01*
X34064048Y3383296D01*
G37*
G36*
X-35265953Y7843296D02*
X-35213316Y7827329D01*
X-34983199Y7757524D01*
X-34983197Y7757523D01*
X-34722612Y7618237D01*
X-34494209Y7430792D01*
X-34306764Y7202389D01*
X-34306763Y7202387D01*
X-34167477Y6941802D01*
X-34125191Y6802402D01*
X-34081705Y6659048D01*
X-34060001Y6438684D01*
X-34060000Y2291317D01*
X-34081704Y2070953D01*
X-34167477Y1788197D01*
X-34306763Y1527612D01*
X-34494208Y1299209D01*
X-34722611Y1111764D01*
X-34805215Y1067611D01*
X-34983198Y972477D01*
X-35124574Y929591D01*
X-35265951Y886705D01*
X-35527874Y860907D01*
X-35560000Y857743D01*
X-35560001Y857743D01*
X-35854047Y886704D01*
X-35906684Y902671D01*
X-36136801Y972476D01*
X-36397386Y1111762D01*
X-36397388Y1111763D01*
X-36625791Y1299208D01*
X-36813236Y1527611D01*
X-36952522Y1788196D01*
X-37038295Y2070952D01*
X-37059999Y2291316D01*
X-37060000Y6438683D01*
X-37038296Y6659047D01*
X-36997633Y6793095D01*
X-36952524Y6941801D01*
X-36813238Y7202386D01*
X-36813237Y7202388D01*
X-36625792Y7430791D01*
X-36397389Y7618236D01*
X-36136804Y7757522D01*
X-36136802Y7757523D01*
X-35995427Y7800408D01*
X-35854049Y7843295D01*
X-35592126Y7869093D01*
X-35560000Y7872257D01*
X-35559999Y7872257D01*
X-35265953Y7843296D01*
X-35265953Y7843296D01*
G37*
G36*
X2949612Y4296612D02*
X2968554Y4281066D01*
X2990165Y4269515D01*
X3013614Y4262402D01*
X3038000Y4260000D01*
X3525000Y4260000D01*
X3525000Y3360000D01*
X3038000Y3360000D01*
X3013614Y3357598D01*
X2990165Y3350485D01*
X2968554Y3338934D01*
X2949612Y3323388D01*
X2938624Y3310000D01*
X1913000Y3310000D01*
X1913000Y4310000D01*
X2938624Y4310000D01*
X2949612Y4296612D01*
X2949612Y4296612D01*
G37*
G36*
X5196551Y4296612D02*
X5225845Y4290785D01*
X5300167Y4260000D01*
X5316839Y4253094D01*
X5397640Y4199104D01*
X5398734Y4198373D01*
X5468373Y4128734D01*
X5523095Y4046837D01*
X5560785Y3955845D01*
X5580000Y3859245D01*
X5580000Y3760755D01*
X5560785Y3664155D01*
X5523095Y3573163D01*
X5468373Y3491266D01*
X5398734Y3421627D01*
X5398731Y3421625D01*
X5316839Y3366906D01*
X5316838Y3366905D01*
X5316837Y3366905D01*
X5294368Y3357598D01*
X5225845Y3329215D01*
X5129246Y3310000D01*
X5030754Y3310000D01*
X4934155Y3329215D01*
X4882804Y3350485D01*
X4859356Y3357598D01*
X4834970Y3360000D01*
X4095000Y3360000D01*
X4095000Y4260000D01*
X4834970Y4260000D01*
X4859356Y4262402D01*
X4882805Y4269515D01*
X4934155Y4290785D01*
X4963449Y4296612D01*
X5030754Y4310000D01*
X5129246Y4310000D01*
X5196551Y4296612D01*
X5196551Y4296612D01*
G37*
G36*
X22634612Y4296612D02*
X22653554Y4281066D01*
X22675165Y4269515D01*
X22698614Y4262402D01*
X22723000Y4260000D01*
X23210000Y4260000D01*
X23210000Y3360000D01*
X22723000Y3360000D01*
X22698614Y3357598D01*
X22675165Y3350485D01*
X22653554Y3338934D01*
X22634612Y3323388D01*
X22623624Y3310000D01*
X21598000Y3310000D01*
X21598000Y4310000D01*
X22623624Y4310000D01*
X22634612Y4296612D01*
X22634612Y4296612D01*
G37*
G36*
X24881551Y4296612D02*
X24910845Y4290785D01*
X24985167Y4260000D01*
X25001839Y4253094D01*
X25082640Y4199104D01*
X25083734Y4198373D01*
X25153373Y4128734D01*
X25208095Y4046837D01*
X25245785Y3955845D01*
X25265000Y3859245D01*
X25265000Y3760755D01*
X25245785Y3664155D01*
X25208095Y3573163D01*
X25153373Y3491266D01*
X25083734Y3421627D01*
X25083731Y3421625D01*
X25001839Y3366906D01*
X25001838Y3366905D01*
X25001837Y3366905D01*
X24979368Y3357598D01*
X24910845Y3329215D01*
X24814246Y3310000D01*
X24715754Y3310000D01*
X24619155Y3329215D01*
X24567804Y3350485D01*
X24544356Y3357598D01*
X24519970Y3360000D01*
X23780000Y3360000D01*
X23780000Y4260000D01*
X24519970Y4260000D01*
X24544356Y4262402D01*
X24567805Y4269515D01*
X24619155Y4290785D01*
X24648449Y4296612D01*
X24715754Y4310000D01*
X24814246Y4310000D01*
X24881551Y4296612D01*
X24881551Y4296612D01*
G37*
G36*
X15385845Y5560785D02*
X15476839Y5523094D01*
X15528039Y5488883D01*
X15558734Y5468373D01*
X15628373Y5398734D01*
X15628375Y5398731D01*
X15650914Y5365000D01*
X15683095Y5316837D01*
X15720785Y5225845D01*
X15740000Y5129245D01*
X15740000Y5030755D01*
X15720785Y4934155D01*
X15683095Y4843163D01*
X15628373Y4761266D01*
X15626612Y4759505D01*
X15611066Y4740563D01*
X15599515Y4718952D01*
X15592402Y4695503D01*
X15590000Y4671117D01*
X15590000Y3868000D01*
X14890000Y3868000D01*
X14890000Y4671117D01*
X14887598Y4695503D01*
X14880485Y4718952D01*
X14868934Y4740563D01*
X14853388Y4759505D01*
X14851627Y4761266D01*
X14796905Y4843163D01*
X14759215Y4934155D01*
X14740000Y5030755D01*
X14740000Y5129245D01*
X14759215Y5225845D01*
X14796905Y5316837D01*
X14829087Y5365000D01*
X14851625Y5398731D01*
X14851627Y5398734D01*
X14921266Y5468373D01*
X14951961Y5488883D01*
X15003161Y5523094D01*
X15094155Y5560785D01*
X15190754Y5580000D01*
X15289246Y5580000D01*
X15385845Y5560785D01*
X15385845Y5560785D01*
G37*
G36*
X-3664155Y5560785D02*
X-3573161Y5523094D01*
X-3521961Y5488883D01*
X-3491266Y5468373D01*
X-3421627Y5398734D01*
X-3421625Y5398731D01*
X-3399086Y5365000D01*
X-3366905Y5316837D01*
X-3329215Y5225845D01*
X-3310000Y5129245D01*
X-3310000Y5030755D01*
X-3329215Y4934155D01*
X-3366905Y4843163D01*
X-3421627Y4761266D01*
X-3423388Y4759505D01*
X-3438934Y4740563D01*
X-3450485Y4718952D01*
X-3457598Y4695503D01*
X-3460000Y4671117D01*
X-3460000Y3868000D01*
X-4160000Y3868000D01*
X-4160000Y4671117D01*
X-4162402Y4695503D01*
X-4169515Y4718952D01*
X-4181066Y4740563D01*
X-4196612Y4759505D01*
X-4198373Y4761266D01*
X-4253095Y4843163D01*
X-4290785Y4934155D01*
X-4310000Y5030755D01*
X-4310000Y5129245D01*
X-4290785Y5225845D01*
X-4253095Y5316837D01*
X-4220913Y5365000D01*
X-4198375Y5398731D01*
X-4198373Y5398734D01*
X-4128734Y5468373D01*
X-4098039Y5488883D01*
X-4046839Y5523094D01*
X-3955845Y5560785D01*
X-3859246Y5580000D01*
X-3760754Y5580000D01*
X-3664155Y5560785D01*
X-3664155Y5560785D01*
G37*
G36*
X23845000Y5488883D02*
X23847402Y5464497D01*
X23854515Y5441048D01*
X23866066Y5419437D01*
X23881612Y5400495D01*
X23883373Y5398734D01*
X23883375Y5398731D01*
X23905914Y5365000D01*
X23938095Y5316837D01*
X23975785Y5225845D01*
X23995000Y5129245D01*
X23995000Y5030755D01*
X23975785Y4934155D01*
X23938095Y4843163D01*
X23883373Y4761266D01*
X23813734Y4691627D01*
X23813731Y4691625D01*
X23731839Y4636906D01*
X23640845Y4599215D01*
X23544246Y4580000D01*
X23445754Y4580000D01*
X23349155Y4599215D01*
X23258161Y4636906D01*
X23176269Y4691625D01*
X23176266Y4691627D01*
X23106627Y4761266D01*
X23051905Y4843163D01*
X23014215Y4934155D01*
X22995000Y5030755D01*
X22995000Y5129245D01*
X23014215Y5225845D01*
X23051905Y5316837D01*
X23084087Y5365000D01*
X23106625Y5398731D01*
X23106627Y5398734D01*
X23108388Y5400495D01*
X23123934Y5419437D01*
X23135485Y5441048D01*
X23142598Y5464497D01*
X23145000Y5488883D01*
X23145000Y6292000D01*
X23845000Y6292000D01*
X23845000Y5488883D01*
X23845000Y5488883D01*
G37*
G36*
X4160000Y5488883D02*
X4162402Y5464497D01*
X4169515Y5441048D01*
X4181066Y5419437D01*
X4196612Y5400495D01*
X4198373Y5398734D01*
X4198375Y5398731D01*
X4220914Y5365000D01*
X4253095Y5316837D01*
X4290785Y5225845D01*
X4310000Y5129245D01*
X4310000Y5030755D01*
X4290785Y4934155D01*
X4253095Y4843163D01*
X4198373Y4761266D01*
X4128734Y4691627D01*
X4128731Y4691625D01*
X4046839Y4636906D01*
X3955845Y4599215D01*
X3859246Y4580000D01*
X3760754Y4580000D01*
X3664155Y4599215D01*
X3573161Y4636906D01*
X3491269Y4691625D01*
X3491266Y4691627D01*
X3421627Y4761266D01*
X3366905Y4843163D01*
X3329215Y4934155D01*
X3310000Y5030755D01*
X3310000Y5129245D01*
X3329215Y5225845D01*
X3366905Y5316837D01*
X3399087Y5365000D01*
X3421625Y5398731D01*
X3421627Y5398734D01*
X3423388Y5400495D01*
X3438934Y5419437D01*
X3450485Y5441048D01*
X3457598Y5464497D01*
X3460000Y5488883D01*
X3460000Y6292000D01*
X4160000Y6292000D01*
X4160000Y5488883D01*
X4160000Y5488883D01*
G37*
G36*
X-11358971Y8370531D02*
X-11358968Y8370530D01*
X-11358967Y8370530D01*
X-11170466Y8313349D01*
X-11170464Y8313348D01*
X-10996741Y8220491D01*
X-10844473Y8095528D01*
X-10719510Y7943260D01*
X-10719509Y7943258D01*
X-10626652Y7769535D01*
X-10580756Y7618236D01*
X-10569470Y7581030D01*
X-10555001Y7434124D01*
X-10555000Y6535877D01*
X-10569469Y6388971D01*
X-10569470Y6388968D01*
X-10569470Y6388967D01*
X-10576740Y6365000D01*
X-10626652Y6200464D01*
X-10719509Y6026741D01*
X-10844472Y5874473D01*
X-10996740Y5749510D01*
X-10996742Y5749509D01*
X-11170465Y5656652D01*
X-11323878Y5610115D01*
X-11358969Y5599470D01*
X-11530955Y5582530D01*
X-11555000Y5580162D01*
X-11555001Y5580162D01*
X-11751029Y5599469D01*
X-11751032Y5599470D01*
X-11751033Y5599470D01*
X-11939534Y5656651D01*
X-12113257Y5749508D01*
X-12113259Y5749509D01*
X-12265527Y5874472D01*
X-12390490Y6026740D01*
X-12483347Y6200463D01*
X-12511114Y6292000D01*
X-12540529Y6388966D01*
X-12540529Y6388967D01*
X-12540530Y6388970D01*
X-12554999Y6535876D01*
X-12555000Y7434123D01*
X-12540531Y7581029D01*
X-12540530Y7581033D01*
X-12483349Y7769534D01*
X-12390492Y7943257D01*
X-12390491Y7943259D01*
X-12265528Y8095527D01*
X-12113260Y8220490D01*
X-11939537Y8313347D01*
X-11939535Y8313348D01*
X-11751034Y8370529D01*
X-11751031Y8370530D01*
X-11579045Y8387470D01*
X-11555000Y8389838D01*
X-11554999Y8389838D01*
X-11358971Y8370531D01*
X-11358971Y8370531D01*
G37*
G36*
X33341029Y8370531D02*
X33341032Y8370530D01*
X33341033Y8370530D01*
X33529534Y8313349D01*
X33529536Y8313348D01*
X33703259Y8220491D01*
X33855527Y8095528D01*
X33980490Y7943260D01*
X33980491Y7943258D01*
X34073348Y7769535D01*
X34119244Y7618236D01*
X34130530Y7581030D01*
X34144999Y7434124D01*
X34145000Y6535877D01*
X34130531Y6388971D01*
X34130530Y6388968D01*
X34130530Y6388967D01*
X34123260Y6365000D01*
X34073348Y6200464D01*
X33980491Y6026741D01*
X33855528Y5874473D01*
X33703260Y5749510D01*
X33703258Y5749509D01*
X33529535Y5656652D01*
X33376122Y5610115D01*
X33341031Y5599470D01*
X33169045Y5582530D01*
X33145000Y5580162D01*
X33144999Y5580162D01*
X32948971Y5599469D01*
X32948968Y5599470D01*
X32948967Y5599470D01*
X32760466Y5656651D01*
X32586743Y5749508D01*
X32586741Y5749509D01*
X32434473Y5874472D01*
X32309510Y6026740D01*
X32216653Y6200463D01*
X32188886Y6292000D01*
X32159471Y6388966D01*
X32159471Y6388967D01*
X32159470Y6388970D01*
X32145001Y6535876D01*
X32145000Y7434123D01*
X32159469Y7581029D01*
X32159470Y7581033D01*
X32216651Y7769534D01*
X32309508Y7943257D01*
X32309509Y7943259D01*
X32434472Y8095527D01*
X32586740Y8220490D01*
X32760463Y8313347D01*
X32760465Y8313348D01*
X32948966Y8370529D01*
X32948969Y8370530D01*
X33120955Y8387470D01*
X33145000Y8389838D01*
X33145001Y8389838D01*
X33341029Y8370531D01*
X33341029Y8370531D01*
G37*
G36*
X17137000Y5850000D02*
X16111376Y5850000D01*
X16100388Y5863388D01*
X16081446Y5878934D01*
X16059835Y5890485D01*
X16036386Y5897598D01*
X16012000Y5900000D01*
X15525000Y5900000D01*
X15525000Y6800000D01*
X16012000Y6800000D01*
X16036386Y6802402D01*
X16059835Y6809515D01*
X16081446Y6821066D01*
X16100388Y6836612D01*
X16111376Y6850000D01*
X17137000Y6850000D01*
X17137000Y5850000D01*
X17137000Y5850000D01*
G37*
G36*
X14086551Y6836612D02*
X14115845Y6830785D01*
X14167195Y6809515D01*
X14190644Y6802402D01*
X14215030Y6800000D01*
X14955000Y6800000D01*
X14955000Y5900000D01*
X14215030Y5900000D01*
X14190644Y5897598D01*
X14167196Y5890485D01*
X14115845Y5869215D01*
X14019246Y5850000D01*
X13920754Y5850000D01*
X13824155Y5869215D01*
X13755632Y5897598D01*
X13733163Y5906905D01*
X13733162Y5906905D01*
X13733161Y5906906D01*
X13651269Y5961625D01*
X13651266Y5961627D01*
X13581627Y6031266D01*
X13526905Y6113163D01*
X13489215Y6204155D01*
X13470000Y6300755D01*
X13470000Y6399245D01*
X13489215Y6495845D01*
X13526905Y6586837D01*
X13581627Y6668734D01*
X13651266Y6738373D01*
X13652360Y6739104D01*
X13733161Y6793094D01*
X13749834Y6800000D01*
X13824155Y6830785D01*
X13853449Y6836612D01*
X13920754Y6850000D01*
X14019246Y6850000D01*
X14086551Y6836612D01*
X14086551Y6836612D01*
G37*
G36*
X-1913000Y5850000D02*
X-2938624Y5850000D01*
X-2949612Y5863388D01*
X-2968554Y5878934D01*
X-2990165Y5890485D01*
X-3013614Y5897598D01*
X-3038000Y5900000D01*
X-3525000Y5900000D01*
X-3525000Y6800000D01*
X-3038000Y6800000D01*
X-3013614Y6802402D01*
X-2990165Y6809515D01*
X-2968554Y6821066D01*
X-2949612Y6836612D01*
X-2938624Y6850000D01*
X-1913000Y6850000D01*
X-1913000Y5850000D01*
X-1913000Y5850000D01*
G37*
G36*
X-4963449Y6836612D02*
X-4934155Y6830785D01*
X-4882805Y6809515D01*
X-4859356Y6802402D01*
X-4834970Y6800000D01*
X-4095000Y6800000D01*
X-4095000Y5900000D01*
X-4834970Y5900000D01*
X-4859356Y5897598D01*
X-4882804Y5890485D01*
X-4934155Y5869215D01*
X-5030754Y5850000D01*
X-5129246Y5850000D01*
X-5225845Y5869215D01*
X-5294368Y5897598D01*
X-5316837Y5906905D01*
X-5316838Y5906905D01*
X-5316839Y5906906D01*
X-5398731Y5961625D01*
X-5398734Y5961627D01*
X-5468373Y6031266D01*
X-5523095Y6113163D01*
X-5560785Y6204155D01*
X-5580000Y6300755D01*
X-5580000Y6399245D01*
X-5560785Y6495845D01*
X-5523095Y6586837D01*
X-5468373Y6668734D01*
X-5398734Y6738373D01*
X-5397640Y6739104D01*
X-5316839Y6793094D01*
X-5300166Y6800000D01*
X-5225845Y6830785D01*
X-5196551Y6836612D01*
X-5129246Y6850000D01*
X-5030754Y6850000D01*
X-4963449Y6836612D01*
X-4963449Y6836612D01*
G37*
M02*
