M48
INCH,TZ
T1C0.0236
T2C0.0250
T3C0.0315
T4C0.0394
T5C0.0433
T6C0.0472
T7C0.1181
%
G90
G05
T1
X8700Y1500
X9250Y2000
X9750Y1500
X-2000Y2500
X-1500Y2000
X-950Y2500
X5500Y2500
X6000Y2000
X6550Y2500
X950Y1500
X1500Y2000
X2000Y1500
T2
X2750Y925
X3500Y0
X5750Y-1000
X6500Y-3000
X6750Y-1000
X8000Y2750
T3
X-6484Y-1500
X-5500Y-1500
X10016Y-1500
X11000Y-1500
T4
X-2250Y188
X-2250Y-3750
X1500Y219
X1500Y-3719
X250Y188
X250Y-3750
X-3500Y188
X-3500Y-3750
X2750Y219
X2750Y-3719
X-1000Y138
X-1000Y-3800
T5
X-4549Y2671G85X-4549Y2829
G05
X13049Y2671G85X13049Y2829
G05
T6
X14750Y-2376G85X14750Y1876
G05
X-14000Y970G85X-14000Y2467
G05
X-14000Y-2967G85X-14000Y-1470
G05
X-19000Y1876G85X-19000Y-2376
G05
T7
X12705Y750G85X13295Y750
G05
X-8795Y750G85X-8205Y750
G05
X-8795Y-3750G85X-8205Y-3750
G05
X12705Y-3750G85X13295Y-3750
G05
T0
M30
