G04 #@! TF.GenerationSoftware,KiCad,Pcbnew,(5.0.1)-3*
G04 #@! TF.CreationDate,2018-12-03T12:15:07+01:00*
G04 #@! TF.ProjectId,drawdio,6472617764696F2E6B696361645F7063,rev?*
G04 #@! TF.SameCoordinates,PX60a6ad0PY525bfc0*
G04 #@! TF.FileFunction,Copper,L2,Bot,Signal*
G04 #@! TF.FilePolarity,Positive*
%FSLAX46Y46*%
G04 Gerber Fmt 4.6, Leading zero omitted, Abs format (unit mm)*
G04 Created by KiCad (PCBNEW (5.0.1)-3) date 03/12/2018 12:15:07*
%MOMM*%
%LPD*%
G01*
G04 APERTURE LIST*
G04 #@! TA.AperFunction,ComponentPad*
%ADD10R,1.998980X1.998980*%
G04 #@! TD*
G04 #@! TA.AperFunction,ComponentPad*
%ADD11C,1.600000*%
G04 #@! TD*
G04 #@! TA.AperFunction,ComponentPad*
%ADD12R,1.600000X1.600000*%
G04 #@! TD*
G04 #@! TA.AperFunction,ComponentPad*
%ADD13O,4.500000X3.000000*%
G04 #@! TD*
G04 #@! TA.AperFunction,ComponentPad*
%ADD14O,3.000000X7.000000*%
G04 #@! TD*
G04 #@! TA.AperFunction,ComponentPad*
%ADD15C,3.000000*%
G04 #@! TD*
G04 #@! TA.AperFunction,Conductor*
%ADD16C,0.150000*%
G04 #@! TD*
G04 #@! TA.AperFunction,ComponentPad*
%ADD17R,1.000000X1.000000*%
G04 #@! TD*
G04 #@! TA.AperFunction,ComponentPad*
%ADD18C,1.000000*%
G04 #@! TD*
G04 #@! TA.AperFunction,ComponentPad*
%ADD19O,2.000000X2.800000*%
G04 #@! TD*
G04 #@! TA.AperFunction,ViaPad*
%ADD20C,0.889000*%
G04 #@! TD*
G04 #@! TA.AperFunction,Conductor*
%ADD21C,0.254000*%
G04 #@! TD*
G04 #@! TA.AperFunction,Conductor*
%ADD22C,0.400000*%
G04 #@! TD*
G04 #@! TA.AperFunction,Conductor*
%ADD23C,0.100000*%
G04 #@! TD*
G04 APERTURE END LIST*
D10*
G04 #@! TO.P,C2,2*
G04 #@! TO.N,GND*
X3810000Y556260D03*
G04 #@! TO.P,C2,1*
G04 #@! TO.N,Net-(C2-Pad1)*
X3810000Y-9446260D03*
G04 #@! TD*
G04 #@! TO.P,C3,1*
G04 #@! TO.N,Net-(C3-Pad1)*
X635000Y477520D03*
G04 #@! TO.P,C3,2*
G04 #@! TO.N,GND*
X635000Y-9525000D03*
G04 #@! TD*
D11*
G04 #@! TO.P,C4,2*
G04 #@! TO.N,Net-(C4-Pad2)*
X-16470000Y-3810000D03*
D12*
G04 #@! TO.P,C4,1*
G04 #@! TO.N,Net-(C4-Pad1)*
X-13970000Y-3810000D03*
G04 #@! TD*
D10*
G04 #@! TO.P,R3,1*
G04 #@! TO.N,Net-(Q1-Pad2)*
X-5715000Y477520D03*
G04 #@! TO.P,R3,2*
G04 #@! TO.N,Net-(R3-Pad2)*
X-5715000Y-9525000D03*
G04 #@! TD*
G04 #@! TO.P,R1,1*
G04 #@! TO.N,Net-(P1-Pad1)*
X-2540000Y-9652000D03*
G04 #@! TO.P,R1,2*
G04 #@! TO.N,Net-(C3-Pad1)*
X-2540000Y350520D03*
G04 #@! TD*
G04 #@! TO.P,R2,2*
G04 #@! TO.N,Net-(P2-Pad1)*
X6985000Y-9446260D03*
G04 #@! TO.P,R2,1*
G04 #@! TO.N,VCC*
X6985000Y556260D03*
G04 #@! TD*
G04 #@! TO.P,R4,2*
G04 #@! TO.N,Net-(P4-Pad2)*
X-8890000Y-9525000D03*
G04 #@! TO.P,R4,1*
G04 #@! TO.N,Net-(Q3-Pad2)*
X-8890000Y477520D03*
G04 #@! TD*
D13*
G04 #@! TO.P,REF\002A\002A,1*
G04 #@! TO.N,N/C*
X-21590000Y1905000D03*
G04 #@! TD*
G04 #@! TO.P,REF\002A\002A,1*
G04 #@! TO.N,N/C*
X-21590000Y-9525000D03*
G04 #@! TD*
G04 #@! TO.P,REF\002A\002A,1*
G04 #@! TO.N,N/C*
X33020000Y1905000D03*
G04 #@! TD*
D14*
G04 #@! TO.P,P4,1*
G04 #@! TO.N,Net-(C4-Pad2)*
X-35560000Y4365000D03*
G04 #@! TO.P,P4,2*
G04 #@! TO.N,Net-(P4-Pad2)*
X-35560000Y-5635000D03*
G04 #@! TD*
D15*
G04 #@! TO.P,P2,1*
G04 #@! TO.N,Net-(P2-Pad1)*
X37465000Y-635000D03*
D16*
G04 #@! TD*
G04 #@! TO.N,Net-(P2-Pad1)*
G04 #@! TO.C,P2*
G36*
X38965000Y-7635000D02*
X35965000Y-6635000D01*
X35965000Y5365000D01*
X38965000Y6365000D01*
X38965000Y-7635000D01*
X38965000Y-7635000D01*
G37*
D15*
G04 #@! TO.P,P1,1*
G04 #@! TO.N,Net-(P1-Pad1)*
X-48260000Y-635000D03*
D16*
G04 #@! TD*
G04 #@! TO.N,Net-(P1-Pad1)*
G04 #@! TO.C,P1*
G36*
X-49760000Y6365000D02*
X-46760000Y5365000D01*
X-46760000Y-6635000D01*
X-49760000Y-7635000D01*
X-49760000Y6365000D01*
X-49760000Y6365000D01*
G37*
D13*
G04 #@! TO.P,REF\002A\002A,1*
G04 #@! TO.N,N/C*
X33020000Y-9525000D03*
G04 #@! TD*
D11*
G04 #@! TO.P,C1,2*
G04 #@! TO.N,GND*
X25440000Y-3810000D03*
D12*
G04 #@! TO.P,C1,1*
G04 #@! TO.N,VCC*
X27940000Y-3810000D03*
G04 #@! TD*
D17*
G04 #@! TO.P,Q1,1*
G04 #@! TO.N,Net-(P4-Pad2)*
X16637000Y6350000D03*
D18*
G04 #@! TO.P,Q1,3*
G04 #@! TO.N,VCC*
X13970000Y6350000D03*
G04 #@! TO.P,Q1,2*
G04 #@! TO.N,Net-(Q1-Pad2)*
X15240000Y5080000D03*
G04 #@! TD*
G04 #@! TO.P,Q2,2*
G04 #@! TO.N,Net-(Q1-Pad2)*
X23495000Y5080000D03*
G04 #@! TO.P,Q2,3*
G04 #@! TO.N,GND*
X24765000Y3810000D03*
D17*
G04 #@! TO.P,Q2,1*
G04 #@! TO.N,Net-(P4-Pad2)*
X22098000Y3810000D03*
G04 #@! TD*
G04 #@! TO.P,Q3,1*
G04 #@! TO.N,Net-(C4-Pad1)*
X2413000Y3810000D03*
D18*
G04 #@! TO.P,Q3,3*
G04 #@! TO.N,VCC*
X5080000Y3810000D03*
G04 #@! TO.P,Q3,2*
G04 #@! TO.N,Net-(Q3-Pad2)*
X3810000Y5080000D03*
G04 #@! TD*
G04 #@! TO.P,Q4,2*
G04 #@! TO.N,Net-(Q3-Pad2)*
X-3810000Y5080000D03*
G04 #@! TO.P,Q4,3*
G04 #@! TO.N,GND*
X-5080000Y6350000D03*
D17*
G04 #@! TO.P,Q4,1*
G04 #@! TO.N,Net-(C4-Pad1)*
X-2413000Y6350000D03*
G04 #@! TD*
D19*
G04 #@! TO.P,BT1,1*
G04 #@! TO.N,VCC*
X33145000Y6985000D03*
G04 #@! TO.P,BT1,2*
G04 #@! TO.N,GND*
X-11555000Y6985000D03*
G04 #@! TD*
D20*
G04 #@! TO.N,GND*
X16510000Y-7620000D03*
G04 #@! TO.N,Net-(C2-Pad1)*
X6985000Y2349490D03*
X8890000Y0D03*
G04 #@! TO.N,Net-(P4-Pad2)*
X20320000Y6985000D03*
G04 #@! TO.N,Net-(C3-Pad1)*
X14605000Y-2540000D03*
G04 #@! TO.N,Net-(R3-Pad2)*
X17145000Y-2540000D03*
G04 #@! TD*
D21*
G04 #@! TO.N,GND*
X25440000Y3135000D02*
X24765000Y3810000D01*
X25440000Y-3810000D02*
X25440000Y3135000D01*
X635000Y-9525000D02*
X635000Y-10778490D01*
X635000Y-10778490D02*
X683261Y-10826751D01*
X13335000Y-10795000D02*
X16510000Y-7620000D01*
X1286510Y-11430000D02*
X12700000Y-11430000D01*
X635000Y-10778490D02*
X1286510Y-11430000D01*
X12700000Y-11430000D02*
X13335000Y-10795000D01*
X16510000Y-7620000D02*
X16510000Y-7620000D01*
D22*
G04 #@! TO.N,VCC*
X7620000Y1191260D02*
X6985000Y556260D01*
D21*
G04 #@! TO.N,Net-(C4-Pad1)*
X-6997698Y5702302D02*
X-6350000Y5702302D01*
X-13970000Y-3810000D02*
X-13970000Y-1270000D01*
X-13970000Y-1270000D02*
X-6997698Y5702302D01*
X-3167000Y6350000D02*
X-2413000Y6350000D01*
X-4445000Y3810000D02*
X-6350000Y5715000D01*
X-6350000Y5715000D02*
X-6350000Y6985000D01*
X-5715000Y7620000D02*
X-4437000Y7620000D01*
X2413000Y3810000D02*
X-4445000Y3810000D01*
X-6350000Y6985000D02*
X-5715000Y7620000D01*
X-4437000Y7620000D02*
X-3167000Y6350000D01*
G04 #@! TO.N,Net-(Q1-Pad2)*
X15240000Y5080000D02*
X23495000Y5080000D01*
X-5715000Y1731010D02*
X-5715000Y477520D01*
X-4906010Y2540000D02*
X-5715000Y1731010D01*
X5763258Y2540000D02*
X-4906010Y2540000D01*
X15240000Y5080000D02*
X8303258Y5080000D01*
X8303258Y5080000D02*
X5763258Y2540000D01*
G04 #@! TO.N,Net-(Q3-Pad2)*
X-8890000Y1254000D02*
X-8890000Y477520D01*
X3810000Y5080000D02*
X-3810000Y5080000D01*
G04 #@! TO.N,Net-(C2-Pad1)*
X8890000Y0D02*
X8890000Y0D01*
X7613617Y2349490D02*
X6985000Y2349490D01*
X8445510Y2349490D02*
X7613617Y2349490D01*
X8890000Y0D02*
X8890000Y1905000D01*
X8890000Y1905000D02*
X8445510Y2349490D01*
G04 #@! TO.N,Net-(P4-Pad2)*
X17272000Y6985000D02*
X16637000Y6350000D01*
X20320000Y6985000D02*
X17272000Y6985000D01*
X-10143490Y-9525000D02*
X-8890000Y-9525000D01*
X16637000Y7493000D02*
X15240000Y8890000D01*
X-18415000Y-5080000D02*
X-13970000Y-9525000D01*
X16637000Y6350000D02*
X16637000Y7493000D01*
X-13970000Y-9525000D02*
X-10143490Y-9525000D01*
X-6350000Y8890000D02*
X-18415000Y-3175000D01*
X15240000Y8890000D02*
X-6350000Y8890000D01*
X-18415000Y-3175000D02*
X-18415000Y-5080000D01*
G04 #@! TO.N,Net-(C3-Pad1)*
X508000Y350520D02*
X635000Y477520D01*
X-2540000Y350520D02*
X508000Y350520D01*
X635000Y-775970D02*
X2399030Y-2540000D01*
X2399030Y-2540000D02*
X13976383Y-2540000D01*
X635000Y477520D02*
X635000Y-775970D01*
X13976383Y-2540000D02*
X14605000Y-2540000D01*
G04 #@! TO.N,Net-(R3-Pad2)*
X-2015480Y-4571990D02*
X14731990Y-4571990D01*
X-5715000Y-9525000D02*
X-5715000Y-8271510D01*
X-5715000Y-8271510D02*
X-2015480Y-4571990D01*
X14731990Y-4571990D02*
X15113010Y-4571990D01*
X15113010Y-4571990D02*
X17145000Y-2540000D01*
X17145000Y-2540000D02*
X17145000Y-2540000D01*
G04 #@! TD*
D23*
G04 #@! TO.N,GND*
G36*
X35784589Y10492390D02*
X36617003Y10264667D01*
X37395940Y9893132D01*
X38096777Y9389531D01*
X38697347Y8769789D01*
X39178686Y8053483D01*
X39525569Y7263262D01*
X39727447Y6422375D01*
X39780000Y5706747D01*
X39780001Y-6974970D01*
X39702390Y-7844584D01*
X39474668Y-8677001D01*
X39103131Y-9455943D01*
X38599533Y-10156774D01*
X37979789Y-10757348D01*
X37263481Y-11238687D01*
X36473262Y-11585569D01*
X35632375Y-11787447D01*
X34916746Y-11840000D01*
X-45709982Y-11840000D01*
X-46579584Y-11762390D01*
X-47412001Y-11534668D01*
X-48190943Y-11163131D01*
X-48891774Y-10659533D01*
X-49492348Y-10039789D01*
X-49838271Y-9525000D01*
X-24179342Y-9525000D01*
X-24039330Y-10228886D01*
X-23640611Y-10825611D01*
X-23043886Y-11224330D01*
X-22517676Y-11329000D01*
X-20662324Y-11329000D01*
X-20136114Y-11224330D01*
X-19539389Y-10825611D01*
X-19140670Y-10228886D01*
X-19000658Y-9525000D01*
X-19140670Y-8821114D01*
X-19539389Y-8224389D01*
X-20136114Y-7825670D01*
X-20662324Y-7721000D01*
X-22517676Y-7721000D01*
X-23043886Y-7825670D01*
X-23640611Y-8224389D01*
X-24039330Y-8821114D01*
X-24179342Y-9525000D01*
X-49838271Y-9525000D01*
X-49973687Y-9323481D01*
X-50320569Y-8533262D01*
X-50522447Y-7692375D01*
X-50575000Y-6976746D01*
X-50575000Y5704982D01*
X-50516096Y6365000D01*
X-50069955Y6365000D01*
X-50069955Y-7635000D01*
X-50054049Y-7733016D01*
X-49994157Y-7838083D01*
X-49898616Y-7912232D01*
X-49781972Y-7944175D01*
X-49661984Y-7929049D01*
X-46661984Y-6929049D01*
X-46540829Y-6854171D01*
X-46473639Y-6753615D01*
X-46450045Y-6635000D01*
X-46450045Y-3457325D01*
X-37364000Y-3457325D01*
X-37363999Y-7812676D01*
X-37259329Y-8338886D01*
X-36860610Y-8935611D01*
X-36263885Y-9334330D01*
X-35560000Y-9474342D01*
X-34856114Y-9334330D01*
X-34259389Y-8935611D01*
X-33860670Y-8338886D01*
X-33756000Y-7812676D01*
X-33756000Y-3457324D01*
X-33812157Y-3175000D01*
X-18854442Y-3175000D01*
X-18846000Y-3217441D01*
X-18845999Y-5037554D01*
X-18854442Y-5080000D01*
X-18820992Y-5248166D01*
X-18820991Y-5248167D01*
X-18820991Y-5248168D01*
X-18725732Y-5390733D01*
X-18689749Y-5414776D01*
X-14304776Y-9799750D01*
X-14280733Y-9835733D01*
X-14138168Y-9930992D01*
X-14012445Y-9956000D01*
X-14012442Y-9956000D01*
X-13970001Y-9964442D01*
X-13927560Y-9956000D01*
X-10199445Y-9956000D01*
X-10199445Y-10524490D01*
X-10175851Y-10643105D01*
X-10108661Y-10743661D01*
X-10008105Y-10810851D01*
X-9889490Y-10834445D01*
X-7890510Y-10834445D01*
X-7771895Y-10810851D01*
X-7671339Y-10743661D01*
X-7604149Y-10643105D01*
X-7580555Y-10524490D01*
X-7580555Y-8525510D01*
X-7024445Y-8525510D01*
X-7024445Y-10524490D01*
X-7000851Y-10643105D01*
X-6933661Y-10743661D01*
X-6833105Y-10810851D01*
X-6714490Y-10834445D01*
X-4715510Y-10834445D01*
X-4596895Y-10810851D01*
X-4496339Y-10743661D01*
X-4429149Y-10643105D01*
X-4405555Y-10524490D01*
X-4405555Y-8652510D01*
X-3849445Y-8652510D01*
X-3849445Y-10651490D01*
X-3825851Y-10770105D01*
X-3758661Y-10870661D01*
X-3658105Y-10937851D01*
X-3539490Y-10961445D01*
X-1540510Y-10961445D01*
X-1421895Y-10937851D01*
X-1321339Y-10870661D01*
X-1254149Y-10770105D01*
X-1230555Y-10651490D01*
X-1230555Y-9868500D01*
X-922490Y-9868500D01*
X-922490Y-10635483D01*
X-837540Y-10840572D01*
X-680572Y-10997539D01*
X-475483Y-11082490D01*
X291500Y-11082490D01*
X431000Y-10942990D01*
X431000Y-9729000D01*
X839000Y-9729000D01*
X839000Y-10942990D01*
X978500Y-11082490D01*
X1745483Y-11082490D01*
X1950572Y-10997539D01*
X2107540Y-10840572D01*
X2192490Y-10635483D01*
X2192490Y-9868500D01*
X2052990Y-9729000D01*
X839000Y-9729000D01*
X431000Y-9729000D01*
X-782990Y-9729000D01*
X-922490Y-9868500D01*
X-1230555Y-9868500D01*
X-1230555Y-8652510D01*
X-1254149Y-8533895D01*
X-1321339Y-8433339D01*
X-1349507Y-8414517D01*
X-922490Y-8414517D01*
X-922490Y-9181500D01*
X-782990Y-9321000D01*
X431000Y-9321000D01*
X431000Y-8107010D01*
X839000Y-8107010D01*
X839000Y-9321000D01*
X2052990Y-9321000D01*
X2192490Y-9181500D01*
X2192490Y-8446770D01*
X2500555Y-8446770D01*
X2500555Y-10445750D01*
X2524149Y-10564365D01*
X2591339Y-10664921D01*
X2691895Y-10732111D01*
X2810510Y-10755705D01*
X4809490Y-10755705D01*
X4928105Y-10732111D01*
X5028661Y-10664921D01*
X5095851Y-10564365D01*
X5119445Y-10445750D01*
X5119445Y-8446770D01*
X5675555Y-8446770D01*
X5675555Y-10445750D01*
X5699149Y-10564365D01*
X5766339Y-10664921D01*
X5866895Y-10732111D01*
X5985510Y-10755705D01*
X7984490Y-10755705D01*
X8103105Y-10732111D01*
X8203661Y-10664921D01*
X8270851Y-10564365D01*
X8294445Y-10445750D01*
X8294445Y-9525000D01*
X30430658Y-9525000D01*
X30570670Y-10228886D01*
X30969389Y-10825611D01*
X31566114Y-11224330D01*
X32092324Y-11329000D01*
X33947676Y-11329000D01*
X34473886Y-11224330D01*
X35070611Y-10825611D01*
X35469330Y-10228886D01*
X35609342Y-9525000D01*
X35469330Y-8821114D01*
X35070611Y-8224389D01*
X34473886Y-7825670D01*
X33947676Y-7721000D01*
X32092324Y-7721000D01*
X31566114Y-7825670D01*
X30969389Y-8224389D01*
X30570670Y-8821114D01*
X30430658Y-9525000D01*
X8294445Y-9525000D01*
X8294445Y-8446770D01*
X8270851Y-8328155D01*
X8203661Y-8227599D01*
X8103105Y-8160409D01*
X7984490Y-8136815D01*
X5985510Y-8136815D01*
X5866895Y-8160409D01*
X5766339Y-8227599D01*
X5699149Y-8328155D01*
X5675555Y-8446770D01*
X5119445Y-8446770D01*
X5095851Y-8328155D01*
X5028661Y-8227599D01*
X4928105Y-8160409D01*
X4809490Y-8136815D01*
X2810510Y-8136815D01*
X2691895Y-8160409D01*
X2591339Y-8227599D01*
X2524149Y-8328155D01*
X2500555Y-8446770D01*
X2192490Y-8446770D01*
X2192490Y-8414517D01*
X2107540Y-8209428D01*
X1950572Y-8052461D01*
X1745483Y-7967510D01*
X978500Y-7967510D01*
X839000Y-8107010D01*
X431000Y-8107010D01*
X291500Y-7967510D01*
X-475483Y-7967510D01*
X-680572Y-8052461D01*
X-837540Y-8209428D01*
X-922490Y-8414517D01*
X-1349507Y-8414517D01*
X-1421895Y-8366149D01*
X-1540510Y-8342555D01*
X-3539490Y-8342555D01*
X-3658105Y-8366149D01*
X-3758661Y-8433339D01*
X-3825851Y-8533895D01*
X-3849445Y-8652510D01*
X-4405555Y-8652510D01*
X-4405555Y-8525510D01*
X-4429149Y-8406895D01*
X-4496339Y-8306339D01*
X-4596895Y-8239149D01*
X-4715510Y-8215555D01*
X-5049520Y-8215555D01*
X-1836954Y-5002990D01*
X15070569Y-5002990D01*
X15113010Y-5011432D01*
X15155451Y-5002990D01*
X15155455Y-5002990D01*
X15281178Y-4977982D01*
X15423743Y-4882723D01*
X15447788Y-4846737D01*
X15471751Y-4822774D01*
X24715725Y-4822774D01*
X24800070Y-5037852D01*
X25318661Y-5189278D01*
X25855724Y-5130721D01*
X26079930Y-5037852D01*
X26164275Y-4822774D01*
X25440000Y-4098500D01*
X24715725Y-4822774D01*
X15471751Y-4822774D01*
X16605864Y-3688661D01*
X24060722Y-3688661D01*
X24119279Y-4225724D01*
X24212148Y-4449930D01*
X24427226Y-4534275D01*
X25151500Y-3810000D01*
X25728500Y-3810000D01*
X26452774Y-4534275D01*
X26667852Y-4449930D01*
X26819278Y-3931339D01*
X26760721Y-3394276D01*
X26667852Y-3170070D01*
X26452774Y-3085725D01*
X25728500Y-3810000D01*
X25151500Y-3810000D01*
X24427226Y-3085725D01*
X24212148Y-3170070D01*
X24060722Y-3688661D01*
X16605864Y-3688661D01*
X17006026Y-3288500D01*
X17293886Y-3288500D01*
X17568991Y-3174548D01*
X17779548Y-2963991D01*
X17848624Y-2797226D01*
X24715725Y-2797226D01*
X25440000Y-3521500D01*
X25951500Y-3010000D01*
X26830045Y-3010000D01*
X26830045Y-4610000D01*
X26853639Y-4728615D01*
X26920829Y-4829171D01*
X27021385Y-4896361D01*
X27140000Y-4919955D01*
X28740000Y-4919955D01*
X28858615Y-4896361D01*
X28959171Y-4829171D01*
X29026361Y-4728615D01*
X29049955Y-4610000D01*
X29049955Y-3010000D01*
X29026361Y-2891385D01*
X28959171Y-2790829D01*
X28858615Y-2723639D01*
X28740000Y-2700045D01*
X27140000Y-2700045D01*
X27021385Y-2723639D01*
X26920829Y-2790829D01*
X26853639Y-2891385D01*
X26830045Y-3010000D01*
X25951500Y-3010000D01*
X26164275Y-2797226D01*
X26079930Y-2582148D01*
X25561339Y-2430722D01*
X25024276Y-2489279D01*
X24800070Y-2582148D01*
X24715725Y-2797226D01*
X17848624Y-2797226D01*
X17893500Y-2688886D01*
X17893500Y-2391114D01*
X17779548Y-2116009D01*
X17568991Y-1905452D01*
X17293886Y-1791500D01*
X16996114Y-1791500D01*
X16721009Y-1905452D01*
X16510452Y-2116009D01*
X16396500Y-2391114D01*
X16396500Y-2678974D01*
X14934485Y-4140990D01*
X-1973040Y-4140990D01*
X-2015481Y-4132548D01*
X-2057922Y-4140990D01*
X-2057925Y-4140990D01*
X-2183648Y-4165998D01*
X-2326213Y-4261257D01*
X-2350256Y-4297240D01*
X-5989749Y-7936734D01*
X-6025732Y-7960777D01*
X-6049775Y-7996760D01*
X-6049776Y-7996761D01*
X-6078809Y-8040212D01*
X-6108420Y-8084529D01*
X-6120992Y-8103344D01*
X-6143312Y-8215555D01*
X-6714490Y-8215555D01*
X-6833105Y-8239149D01*
X-6933661Y-8306339D01*
X-7000851Y-8406895D01*
X-7024445Y-8525510D01*
X-7580555Y-8525510D01*
X-7604149Y-8406895D01*
X-7671339Y-8306339D01*
X-7771895Y-8239149D01*
X-7890510Y-8215555D01*
X-9889490Y-8215555D01*
X-10008105Y-8239149D01*
X-10108661Y-8306339D01*
X-10175851Y-8406895D01*
X-10199445Y-8525510D01*
X-10199445Y-9094000D01*
X-13791474Y-9094000D01*
X-17984000Y-4901475D01*
X-17984000Y-3590401D01*
X-17574000Y-3590401D01*
X-17574000Y-4029599D01*
X-17405926Y-4435366D01*
X-17095366Y-4745926D01*
X-16689599Y-4914000D01*
X-16250401Y-4914000D01*
X-15844634Y-4745926D01*
X-15534074Y-4435366D01*
X-15366000Y-4029599D01*
X-15366000Y-3590401D01*
X-15534074Y-3184634D01*
X-15708708Y-3010000D01*
X-15079955Y-3010000D01*
X-15079955Y-4610000D01*
X-15056361Y-4728615D01*
X-14989171Y-4829171D01*
X-14888615Y-4896361D01*
X-14770000Y-4919955D01*
X-13170000Y-4919955D01*
X-13051385Y-4896361D01*
X-12950829Y-4829171D01*
X-12883639Y-4728615D01*
X-12860045Y-4610000D01*
X-12860045Y-3010000D01*
X-12883639Y-2891385D01*
X-12950829Y-2790829D01*
X-13051385Y-2723639D01*
X-13170000Y-2700045D01*
X-13539000Y-2700045D01*
X-13539000Y-1448525D01*
X-10613465Y1477010D01*
X-10199445Y1477010D01*
X-10199445Y-521970D01*
X-10175851Y-640585D01*
X-10108661Y-741141D01*
X-10008105Y-808331D01*
X-9889490Y-831925D01*
X-7890510Y-831925D01*
X-7771895Y-808331D01*
X-7671339Y-741141D01*
X-7604149Y-640585D01*
X-7580555Y-521970D01*
X-7580555Y1477010D01*
X-7024445Y1477010D01*
X-7024445Y-521970D01*
X-7000851Y-640585D01*
X-6933661Y-741141D01*
X-6833105Y-808331D01*
X-6714490Y-831925D01*
X-4715510Y-831925D01*
X-4596895Y-808331D01*
X-4496339Y-741141D01*
X-4429149Y-640585D01*
X-4405555Y-521970D01*
X-4405555Y1350010D01*
X-3849445Y1350010D01*
X-3849445Y-648970D01*
X-3825851Y-767585D01*
X-3758661Y-868141D01*
X-3658105Y-935331D01*
X-3539490Y-958925D01*
X-1540510Y-958925D01*
X-1421895Y-935331D01*
X-1321339Y-868141D01*
X-1254149Y-767585D01*
X-1230555Y-648970D01*
X-1230555Y-80480D01*
X-674445Y-80480D01*
X-674445Y-521970D01*
X-650851Y-640585D01*
X-583661Y-741141D01*
X-483105Y-808331D01*
X-364490Y-831925D01*
X206688Y-831925D01*
X229008Y-944136D01*
X229009Y-944137D01*
X229009Y-944138D01*
X324268Y-1086703D01*
X360251Y-1110746D01*
X2064254Y-2814750D01*
X2088297Y-2850733D01*
X2230862Y-2945992D01*
X2356585Y-2971000D01*
X2356588Y-2971000D01*
X2399029Y-2979442D01*
X2441470Y-2971000D01*
X13977461Y-2971000D01*
X14181009Y-3174548D01*
X14456114Y-3288500D01*
X14753886Y-3288500D01*
X15028991Y-3174548D01*
X15239548Y-2963991D01*
X15353500Y-2688886D01*
X15353500Y-2391114D01*
X15239548Y-2116009D01*
X15028991Y-1905452D01*
X14753886Y-1791500D01*
X14456114Y-1791500D01*
X14181009Y-1905452D01*
X13977461Y-2109000D01*
X2577556Y-2109000D01*
X1300480Y-831925D01*
X1634490Y-831925D01*
X1753105Y-808331D01*
X1853661Y-741141D01*
X1920851Y-640585D01*
X1944445Y-521970D01*
X1944445Y212760D01*
X2252510Y212760D01*
X2252510Y-554223D01*
X2337460Y-759312D01*
X2494428Y-916279D01*
X2699517Y-1001230D01*
X3466500Y-1001230D01*
X3606000Y-861730D01*
X3606000Y352260D01*
X4014000Y352260D01*
X4014000Y-861730D01*
X4153500Y-1001230D01*
X4920483Y-1001230D01*
X5125572Y-916279D01*
X5282540Y-759312D01*
X5367490Y-554223D01*
X5367490Y212760D01*
X5227990Y352260D01*
X4014000Y352260D01*
X3606000Y352260D01*
X2392010Y352260D01*
X2252510Y212760D01*
X1944445Y212760D01*
X1944445Y1477010D01*
X1920851Y1595625D01*
X1853661Y1696181D01*
X1753105Y1763371D01*
X1634490Y1786965D01*
X-364490Y1786965D01*
X-483105Y1763371D01*
X-583661Y1696181D01*
X-650851Y1595625D01*
X-674445Y1477010D01*
X-674445Y781520D01*
X-1230555Y781520D01*
X-1230555Y1350010D01*
X-1254149Y1468625D01*
X-1321339Y1569181D01*
X-1421895Y1636371D01*
X-1540510Y1659965D01*
X-3539490Y1659965D01*
X-3658105Y1636371D01*
X-3758661Y1569181D01*
X-3825851Y1468625D01*
X-3849445Y1350010D01*
X-4405555Y1350010D01*
X-4405555Y1477010D01*
X-4429149Y1595625D01*
X-4496339Y1696181D01*
X-4596895Y1763371D01*
X-4715510Y1786965D01*
X-5049520Y1786965D01*
X-4727484Y2109000D01*
X2688050Y2109000D01*
X2494428Y2028799D01*
X2337460Y1871832D01*
X2252510Y1666743D01*
X2252510Y899760D01*
X2392010Y760260D01*
X3606000Y760260D01*
X3606000Y780260D01*
X4014000Y780260D01*
X4014000Y760260D01*
X5227990Y760260D01*
X5367490Y899760D01*
X5367490Y1666743D01*
X5282540Y1871832D01*
X5125572Y2028799D01*
X4931950Y2109000D01*
X5720817Y2109000D01*
X5763258Y2100558D01*
X5805699Y2109000D01*
X5805703Y2109000D01*
X5931426Y2134008D01*
X6073991Y2229267D01*
X6098036Y2265253D01*
X6236500Y2403717D01*
X6236500Y2200604D01*
X6350452Y1925499D01*
X6410246Y1865705D01*
X5985510Y1865705D01*
X5866895Y1842111D01*
X5766339Y1774921D01*
X5699149Y1674365D01*
X5675555Y1555750D01*
X5675555Y-443230D01*
X5699149Y-561845D01*
X5766339Y-662401D01*
X5866895Y-729591D01*
X5985510Y-753185D01*
X7984490Y-753185D01*
X8103105Y-729591D01*
X8203661Y-662401D01*
X8270851Y-561845D01*
X8291168Y-459707D01*
X8466009Y-634548D01*
X8741114Y-748500D01*
X9038886Y-748500D01*
X9313991Y-634548D01*
X9524548Y-423991D01*
X9638500Y-148886D01*
X9638500Y148886D01*
X9524548Y423991D01*
X9321000Y627539D01*
X9321000Y1862559D01*
X9329442Y1905000D01*
X30430658Y1905000D01*
X30570670Y1201114D01*
X30969389Y604389D01*
X31566114Y205670D01*
X32092324Y101000D01*
X33947676Y101000D01*
X34473886Y205670D01*
X35070611Y604389D01*
X35469330Y1201114D01*
X35609342Y1905000D01*
X35469330Y2608886D01*
X35070611Y3205611D01*
X34473886Y3604330D01*
X33947676Y3709000D01*
X32092324Y3709000D01*
X31566114Y3604330D01*
X30969389Y3205611D01*
X30570670Y2608886D01*
X30430658Y1905000D01*
X9329442Y1905000D01*
X9321000Y1947441D01*
X9321000Y1947445D01*
X9295992Y2073168D01*
X9200733Y2215733D01*
X9164749Y2239777D01*
X8780288Y2624237D01*
X8756243Y2660223D01*
X8613678Y2755482D01*
X8487955Y2780490D01*
X8487951Y2780490D01*
X8445510Y2788932D01*
X8403069Y2780490D01*
X7612539Y2780490D01*
X7408991Y2984038D01*
X7133886Y3097990D01*
X6930773Y3097990D01*
X8481784Y4649000D01*
X14548283Y4649000D01*
X14558402Y4624571D01*
X14784571Y4398402D01*
X15080075Y4276000D01*
X15399925Y4276000D01*
X15482008Y4310000D01*
X21288045Y4310000D01*
X21288045Y3310000D01*
X21311639Y3191385D01*
X21378829Y3090829D01*
X21479385Y3023639D01*
X21598000Y3000045D01*
X22598000Y3000045D01*
X22685606Y3017471D01*
X24260971Y3017471D01*
X24307421Y2833131D01*
X24716084Y2732383D01*
X25132194Y2795693D01*
X25222579Y2833131D01*
X25269029Y3017471D01*
X24765000Y3521500D01*
X24260971Y3017471D01*
X22685606Y3017471D01*
X22716615Y3023639D01*
X22817171Y3090829D01*
X22884361Y3191385D01*
X22907955Y3310000D01*
X22907955Y4310000D01*
X22884361Y4428615D01*
X22817171Y4529171D01*
X22716615Y4596361D01*
X22598000Y4619955D01*
X21598000Y4619955D01*
X21479385Y4596361D01*
X21378829Y4529171D01*
X21311639Y4428615D01*
X21288045Y4310000D01*
X15482008Y4310000D01*
X15695429Y4398402D01*
X15921598Y4624571D01*
X15931717Y4649000D01*
X22803283Y4649000D01*
X22813402Y4624571D01*
X23039571Y4398402D01*
X23335075Y4276000D01*
X23654925Y4276000D01*
X23906353Y4380145D01*
X23972469Y4314029D01*
X23788131Y4267579D01*
X23687383Y3858916D01*
X23750693Y3442806D01*
X23788131Y3352421D01*
X23972471Y3305971D01*
X24476500Y3810000D01*
X25053500Y3810000D01*
X25557529Y3305971D01*
X25741869Y3352421D01*
X25842617Y3761084D01*
X25779307Y4177194D01*
X25741869Y4267579D01*
X25557529Y4314029D01*
X25053500Y3810000D01*
X24476500Y3810000D01*
X24462358Y3824142D01*
X24750858Y4112642D01*
X24765000Y4098500D01*
X25269029Y4602529D01*
X25222579Y4786869D01*
X24813916Y4887617D01*
X24397806Y4824307D01*
X24307421Y4786869D01*
X24260971Y4602531D01*
X24194855Y4668647D01*
X24299000Y4920075D01*
X24299000Y5239925D01*
X24176598Y5535429D01*
X23950429Y5761598D01*
X23654925Y5884000D01*
X23335075Y5884000D01*
X23039571Y5761598D01*
X22813402Y5535429D01*
X22803283Y5511000D01*
X15931717Y5511000D01*
X15921598Y5535429D01*
X15695429Y5761598D01*
X15399925Y5884000D01*
X15080075Y5884000D01*
X14784571Y5761598D01*
X14558402Y5535429D01*
X14548283Y5511000D01*
X8345698Y5511000D01*
X8303257Y5519442D01*
X8260816Y5511000D01*
X8260813Y5511000D01*
X8135090Y5485992D01*
X7992525Y5390733D01*
X7968482Y5354750D01*
X5584733Y2971000D01*
X-4863565Y2971000D01*
X-4906010Y2979443D01*
X-4948455Y2971000D01*
X-5074178Y2945992D01*
X-5216743Y2850733D01*
X-5240786Y2814749D01*
X-5989747Y2065788D01*
X-6025733Y2041743D01*
X-6120992Y1899177D01*
X-6143312Y1786965D01*
X-6714490Y1786965D01*
X-6833105Y1763371D01*
X-6933661Y1696181D01*
X-7000851Y1595625D01*
X-7024445Y1477010D01*
X-7580555Y1477010D01*
X-7604149Y1595625D01*
X-7671339Y1696181D01*
X-7771895Y1763371D01*
X-7890510Y1786965D01*
X-9889490Y1786965D01*
X-10008105Y1763371D01*
X-10108661Y1696181D01*
X-10175851Y1595625D01*
X-10199445Y1477010D01*
X-10613465Y1477010D01*
X-6819172Y5271302D01*
X-6515827Y5271302D01*
X-4779776Y3535250D01*
X-4755733Y3499267D01*
X-4613168Y3404008D01*
X-4487445Y3379000D01*
X-4487441Y3379000D01*
X-4445000Y3370558D01*
X-4402559Y3379000D01*
X1603045Y3379000D01*
X1603045Y3310000D01*
X1626639Y3191385D01*
X1693829Y3090829D01*
X1794385Y3023639D01*
X1913000Y3000045D01*
X2913000Y3000045D01*
X3031615Y3023639D01*
X3132171Y3090829D01*
X3199361Y3191385D01*
X3222955Y3310000D01*
X3222955Y3969925D01*
X4276000Y3969925D01*
X4276000Y3650075D01*
X4398402Y3354571D01*
X4624571Y3128402D01*
X4920075Y3006000D01*
X5239925Y3006000D01*
X5535429Y3128402D01*
X5761598Y3354571D01*
X5884000Y3650075D01*
X5884000Y3969925D01*
X5761598Y4265429D01*
X5535429Y4491598D01*
X5239925Y4614000D01*
X4920075Y4614000D01*
X4624571Y4491598D01*
X4398402Y4265429D01*
X4276000Y3969925D01*
X3222955Y3969925D01*
X3222955Y4310000D01*
X3199361Y4428615D01*
X3132171Y4529171D01*
X3031615Y4596361D01*
X2913000Y4619955D01*
X1913000Y4619955D01*
X1794385Y4596361D01*
X1693829Y4529171D01*
X1626639Y4428615D01*
X1603045Y4310000D01*
X1603045Y4241000D01*
X-4266474Y4241000D01*
X-5353134Y5327660D01*
X-5128916Y5272383D01*
X-4712806Y5335693D01*
X-4622421Y5373131D01*
X-4575971Y5557469D01*
X-4509855Y5491353D01*
X-4614000Y5239925D01*
X-4614000Y4920075D01*
X-4491598Y4624571D01*
X-4265429Y4398402D01*
X-3969925Y4276000D01*
X-3650075Y4276000D01*
X-3354571Y4398402D01*
X-3128402Y4624571D01*
X-3118283Y4649000D01*
X3118283Y4649000D01*
X3128402Y4624571D01*
X3354571Y4398402D01*
X3650075Y4276000D01*
X3969925Y4276000D01*
X4265429Y4398402D01*
X4491598Y4624571D01*
X4614000Y4920075D01*
X4614000Y5239925D01*
X4491598Y5535429D01*
X4265429Y5761598D01*
X3969925Y5884000D01*
X3650075Y5884000D01*
X3354571Y5761598D01*
X3128402Y5535429D01*
X3118283Y5511000D01*
X-3118283Y5511000D01*
X-3128402Y5535429D01*
X-3354571Y5761598D01*
X-3650075Y5884000D01*
X-3969925Y5884000D01*
X-4221353Y5779855D01*
X-4287469Y5845971D01*
X-4103131Y5892421D01*
X-4002383Y6301084D01*
X-4051691Y6625165D01*
X-3501774Y6075248D01*
X-3477733Y6039267D01*
X-3441753Y6015226D01*
X-3441751Y6015224D01*
X-3335767Y5944408D01*
X-3335168Y5944008D01*
X-3222955Y5921687D01*
X-3222955Y5850000D01*
X-3199361Y5731385D01*
X-3132171Y5630829D01*
X-3031615Y5563639D01*
X-2913000Y5540045D01*
X-1913000Y5540045D01*
X-1794385Y5563639D01*
X-1693829Y5630829D01*
X-1626639Y5731385D01*
X-1603045Y5850000D01*
X-1603045Y6509925D01*
X13166000Y6509925D01*
X13166000Y6190075D01*
X13288402Y5894571D01*
X13514571Y5668402D01*
X13810075Y5546000D01*
X14129925Y5546000D01*
X14425429Y5668402D01*
X14651598Y5894571D01*
X14774000Y6190075D01*
X14774000Y6509925D01*
X14651598Y6805429D01*
X14425429Y7031598D01*
X14129925Y7154000D01*
X13810075Y7154000D01*
X13514571Y7031598D01*
X13288402Y6805429D01*
X13166000Y6509925D01*
X-1603045Y6509925D01*
X-1603045Y6850000D01*
X-1626639Y6968615D01*
X-1693829Y7069171D01*
X-1794385Y7136361D01*
X-1913000Y7159955D01*
X-2913000Y7159955D01*
X-3031615Y7136361D01*
X-3132171Y7069171D01*
X-3190039Y6982566D01*
X-4102222Y7894747D01*
X-4126267Y7930733D01*
X-4268832Y8025992D01*
X-4394555Y8051000D01*
X-4394559Y8051000D01*
X-4437000Y8059442D01*
X-4479441Y8051000D01*
X-5672555Y8051000D01*
X-5715000Y8059443D01*
X-5757445Y8051000D01*
X-5883168Y8025992D01*
X-6025733Y7930733D01*
X-6049776Y7894749D01*
X-6624749Y7319776D01*
X-6660732Y7295733D01*
X-6738909Y7178732D01*
X-6755992Y7153166D01*
X-6789442Y6985000D01*
X-6780999Y6942554D01*
X-6781000Y6133302D01*
X-6955258Y6133302D01*
X-6997699Y6141744D01*
X-7040140Y6133302D01*
X-7040143Y6133302D01*
X-7165866Y6108294D01*
X-7308431Y6013035D01*
X-7332474Y5977052D01*
X-14244749Y-935224D01*
X-14280732Y-959267D01*
X-14304775Y-995250D01*
X-14304776Y-995251D01*
X-14375992Y-1101834D01*
X-14409442Y-1270000D01*
X-14400999Y-1312446D01*
X-14401000Y-2700045D01*
X-14770000Y-2700045D01*
X-14888615Y-2723639D01*
X-14989171Y-2790829D01*
X-15056361Y-2891385D01*
X-15079955Y-3010000D01*
X-15708708Y-3010000D01*
X-15844634Y-2874074D01*
X-16250401Y-2706000D01*
X-16689599Y-2706000D01*
X-17095366Y-2874074D01*
X-17405926Y-3184634D01*
X-17574000Y-3590401D01*
X-17984000Y-3590401D01*
X-17984000Y-3353525D01*
X-6171474Y8459000D01*
X15061475Y8459000D01*
X16206001Y7314473D01*
X16206001Y7159955D01*
X16137000Y7159955D01*
X16018385Y7136361D01*
X15917829Y7069171D01*
X15850639Y6968615D01*
X15827045Y6850000D01*
X15827045Y5850000D01*
X15850639Y5731385D01*
X15917829Y5630829D01*
X16018385Y5563639D01*
X16137000Y5540045D01*
X17137000Y5540045D01*
X17255615Y5563639D01*
X17356171Y5630829D01*
X17423361Y5731385D01*
X17446955Y5850000D01*
X17446955Y6550429D01*
X17450526Y6554000D01*
X19692461Y6554000D01*
X19896009Y6350452D01*
X20171114Y6236500D01*
X20468886Y6236500D01*
X20743991Y6350452D01*
X20954548Y6561009D01*
X21068500Y6836114D01*
X21068500Y7133886D01*
X20954548Y7408991D01*
X20850112Y7513427D01*
X31841000Y7513427D01*
X31841000Y6456572D01*
X31916660Y6076205D01*
X32204870Y5644869D01*
X32636206Y5356660D01*
X33145000Y5255454D01*
X33653795Y5356660D01*
X33666276Y5365000D01*
X35655045Y5365000D01*
X35655045Y-6635000D01*
X35687768Y-6773616D01*
X35761917Y-6869157D01*
X35866984Y-6929049D01*
X38866984Y-7929049D01*
X38965000Y-7944955D01*
X39083615Y-7921361D01*
X39184171Y-7854171D01*
X39251361Y-7753615D01*
X39274955Y-7635000D01*
X39274955Y6365000D01*
X39259049Y6463016D01*
X39199157Y6568083D01*
X39103616Y6642232D01*
X38986972Y6674175D01*
X38866984Y6659049D01*
X35866984Y5659049D01*
X35745829Y5584171D01*
X35678639Y5483615D01*
X35655045Y5365000D01*
X33666276Y5365000D01*
X34085131Y5644869D01*
X34373340Y6076205D01*
X34449000Y6456573D01*
X34449000Y7513428D01*
X34373340Y7893795D01*
X34085131Y8325131D01*
X33653794Y8613340D01*
X33145000Y8714546D01*
X32636205Y8613340D01*
X32204869Y8325131D01*
X31916660Y7893794D01*
X31841000Y7513427D01*
X20850112Y7513427D01*
X20743991Y7619548D01*
X20468886Y7733500D01*
X20171114Y7733500D01*
X19896009Y7619548D01*
X19692461Y7416000D01*
X17314445Y7416000D01*
X17272000Y7424443D01*
X17229555Y7416000D01*
X17103832Y7390992D01*
X17068000Y7367050D01*
X17068000Y7450560D01*
X17076442Y7493001D01*
X17068000Y7535442D01*
X17068000Y7535445D01*
X17042992Y7661168D01*
X16947733Y7803733D01*
X16911750Y7827776D01*
X15574778Y9164747D01*
X15550733Y9200733D01*
X15408168Y9295992D01*
X15282445Y9321000D01*
X15282441Y9321000D01*
X15240000Y9329442D01*
X15197559Y9321000D01*
X-6307555Y9321000D01*
X-6350000Y9329443D01*
X-6392445Y9321000D01*
X-6518168Y9295992D01*
X-6660733Y9200733D01*
X-6684776Y9164750D01*
X-18689747Y-2840222D01*
X-18725733Y-2864267D01*
X-18820992Y-3006833D01*
X-18846000Y-3132556D01*
X-18846000Y-3132559D01*
X-18854442Y-3175000D01*
X-33812157Y-3175000D01*
X-33860670Y-2931114D01*
X-34259389Y-2334389D01*
X-34856115Y-1935670D01*
X-35560000Y-1795658D01*
X-36263886Y-1935670D01*
X-36860611Y-2334389D01*
X-37259330Y-2931115D01*
X-37364000Y-3457325D01*
X-46450045Y-3457325D01*
X-46450045Y5365000D01*
X-46482768Y5503616D01*
X-46556917Y5599157D01*
X-46661984Y5659049D01*
X-49312862Y6542675D01*
X-37364000Y6542675D01*
X-37363999Y2187324D01*
X-37259329Y1661114D01*
X-36860610Y1064389D01*
X-36263885Y665670D01*
X-35560000Y525658D01*
X-34856114Y665670D01*
X-34259389Y1064389D01*
X-33860670Y1661114D01*
X-33812158Y1905000D01*
X-24179342Y1905000D01*
X-24039330Y1201114D01*
X-23640611Y604389D01*
X-23043886Y205670D01*
X-22517676Y101000D01*
X-20662324Y101000D01*
X-20136114Y205670D01*
X-19539389Y604389D01*
X-19140670Y1201114D01*
X-19000658Y1905000D01*
X-19140670Y2608886D01*
X-19539389Y3205611D01*
X-20136114Y3604330D01*
X-20662324Y3709000D01*
X-22517676Y3709000D01*
X-23043886Y3604330D01*
X-23640611Y3205611D01*
X-24039330Y2608886D01*
X-24179342Y1905000D01*
X-33812158Y1905000D01*
X-33756000Y2187324D01*
X-33756000Y6532865D01*
X-13137087Y6532865D01*
X-12996707Y5931395D01*
X-12636840Y5429430D01*
X-12112272Y5103390D01*
X-11998115Y5091342D01*
X-11759000Y5181246D01*
X-11759000Y6781000D01*
X-11351000Y6781000D01*
X-11351000Y5181246D01*
X-11111885Y5091342D01*
X-10997728Y5103390D01*
X-10473160Y5429430D01*
X-10113293Y5931395D01*
X-9972913Y6532865D01*
X-10123735Y6781000D01*
X-11351000Y6781000D01*
X-11759000Y6781000D01*
X-12986265Y6781000D01*
X-13137087Y6532865D01*
X-33756000Y6532865D01*
X-33756000Y6542676D01*
X-33860670Y7068886D01*
X-34106726Y7437135D01*
X-13137087Y7437135D01*
X-12986265Y7189000D01*
X-11759000Y7189000D01*
X-11759000Y8788754D01*
X-11351000Y8788754D01*
X-11351000Y7189000D01*
X-10123735Y7189000D01*
X-9972913Y7437135D01*
X-10113293Y8038605D01*
X-10473160Y8540570D01*
X-10997728Y8866610D01*
X-11111885Y8878658D01*
X-11351000Y8788754D01*
X-11759000Y8788754D01*
X-11998115Y8878658D01*
X-12112272Y8866610D01*
X-12636840Y8540570D01*
X-12996707Y8038605D01*
X-13137087Y7437135D01*
X-34106726Y7437135D01*
X-34259389Y7665611D01*
X-34856115Y8064330D01*
X-35560000Y8204342D01*
X-36263886Y8064330D01*
X-36860611Y7665611D01*
X-37259330Y7068885D01*
X-37364000Y6542675D01*
X-49312862Y6542675D01*
X-49661984Y6659049D01*
X-49760000Y6674955D01*
X-49878615Y6651361D01*
X-49979171Y6584171D01*
X-50046361Y6483615D01*
X-50069955Y6365000D01*
X-50516096Y6365000D01*
X-50497390Y6574589D01*
X-50269667Y7407003D01*
X-49898132Y8185940D01*
X-49394531Y8886777D01*
X-48774789Y9487347D01*
X-48058483Y9968686D01*
X-47268262Y10315569D01*
X-46427375Y10517447D01*
X-45711747Y10570000D01*
X34914982Y10570000D01*
X35784589Y10492390D01*
X35784589Y10492390D01*
G37*
X35784589Y10492390D02*
X36617003Y10264667D01*
X37395940Y9893132D01*
X38096777Y9389531D01*
X38697347Y8769789D01*
X39178686Y8053483D01*
X39525569Y7263262D01*
X39727447Y6422375D01*
X39780000Y5706747D01*
X39780001Y-6974970D01*
X39702390Y-7844584D01*
X39474668Y-8677001D01*
X39103131Y-9455943D01*
X38599533Y-10156774D01*
X37979789Y-10757348D01*
X37263481Y-11238687D01*
X36473262Y-11585569D01*
X35632375Y-11787447D01*
X34916746Y-11840000D01*
X-45709982Y-11840000D01*
X-46579584Y-11762390D01*
X-47412001Y-11534668D01*
X-48190943Y-11163131D01*
X-48891774Y-10659533D01*
X-49492348Y-10039789D01*
X-49838271Y-9525000D01*
X-24179342Y-9525000D01*
X-24039330Y-10228886D01*
X-23640611Y-10825611D01*
X-23043886Y-11224330D01*
X-22517676Y-11329000D01*
X-20662324Y-11329000D01*
X-20136114Y-11224330D01*
X-19539389Y-10825611D01*
X-19140670Y-10228886D01*
X-19000658Y-9525000D01*
X-19140670Y-8821114D01*
X-19539389Y-8224389D01*
X-20136114Y-7825670D01*
X-20662324Y-7721000D01*
X-22517676Y-7721000D01*
X-23043886Y-7825670D01*
X-23640611Y-8224389D01*
X-24039330Y-8821114D01*
X-24179342Y-9525000D01*
X-49838271Y-9525000D01*
X-49973687Y-9323481D01*
X-50320569Y-8533262D01*
X-50522447Y-7692375D01*
X-50575000Y-6976746D01*
X-50575000Y5704982D01*
X-50516096Y6365000D01*
X-50069955Y6365000D01*
X-50069955Y-7635000D01*
X-50054049Y-7733016D01*
X-49994157Y-7838083D01*
X-49898616Y-7912232D01*
X-49781972Y-7944175D01*
X-49661984Y-7929049D01*
X-46661984Y-6929049D01*
X-46540829Y-6854171D01*
X-46473639Y-6753615D01*
X-46450045Y-6635000D01*
X-46450045Y-3457325D01*
X-37364000Y-3457325D01*
X-37363999Y-7812676D01*
X-37259329Y-8338886D01*
X-36860610Y-8935611D01*
X-36263885Y-9334330D01*
X-35560000Y-9474342D01*
X-34856114Y-9334330D01*
X-34259389Y-8935611D01*
X-33860670Y-8338886D01*
X-33756000Y-7812676D01*
X-33756000Y-3457324D01*
X-33812157Y-3175000D01*
X-18854442Y-3175000D01*
X-18846000Y-3217441D01*
X-18845999Y-5037554D01*
X-18854442Y-5080000D01*
X-18820992Y-5248166D01*
X-18820991Y-5248167D01*
X-18820991Y-5248168D01*
X-18725732Y-5390733D01*
X-18689749Y-5414776D01*
X-14304776Y-9799750D01*
X-14280733Y-9835733D01*
X-14138168Y-9930992D01*
X-14012445Y-9956000D01*
X-14012442Y-9956000D01*
X-13970001Y-9964442D01*
X-13927560Y-9956000D01*
X-10199445Y-9956000D01*
X-10199445Y-10524490D01*
X-10175851Y-10643105D01*
X-10108661Y-10743661D01*
X-10008105Y-10810851D01*
X-9889490Y-10834445D01*
X-7890510Y-10834445D01*
X-7771895Y-10810851D01*
X-7671339Y-10743661D01*
X-7604149Y-10643105D01*
X-7580555Y-10524490D01*
X-7580555Y-8525510D01*
X-7024445Y-8525510D01*
X-7024445Y-10524490D01*
X-7000851Y-10643105D01*
X-6933661Y-10743661D01*
X-6833105Y-10810851D01*
X-6714490Y-10834445D01*
X-4715510Y-10834445D01*
X-4596895Y-10810851D01*
X-4496339Y-10743661D01*
X-4429149Y-10643105D01*
X-4405555Y-10524490D01*
X-4405555Y-8652510D01*
X-3849445Y-8652510D01*
X-3849445Y-10651490D01*
X-3825851Y-10770105D01*
X-3758661Y-10870661D01*
X-3658105Y-10937851D01*
X-3539490Y-10961445D01*
X-1540510Y-10961445D01*
X-1421895Y-10937851D01*
X-1321339Y-10870661D01*
X-1254149Y-10770105D01*
X-1230555Y-10651490D01*
X-1230555Y-9868500D01*
X-922490Y-9868500D01*
X-922490Y-10635483D01*
X-837540Y-10840572D01*
X-680572Y-10997539D01*
X-475483Y-11082490D01*
X291500Y-11082490D01*
X431000Y-10942990D01*
X431000Y-9729000D01*
X839000Y-9729000D01*
X839000Y-10942990D01*
X978500Y-11082490D01*
X1745483Y-11082490D01*
X1950572Y-10997539D01*
X2107540Y-10840572D01*
X2192490Y-10635483D01*
X2192490Y-9868500D01*
X2052990Y-9729000D01*
X839000Y-9729000D01*
X431000Y-9729000D01*
X-782990Y-9729000D01*
X-922490Y-9868500D01*
X-1230555Y-9868500D01*
X-1230555Y-8652510D01*
X-1254149Y-8533895D01*
X-1321339Y-8433339D01*
X-1349507Y-8414517D01*
X-922490Y-8414517D01*
X-922490Y-9181500D01*
X-782990Y-9321000D01*
X431000Y-9321000D01*
X431000Y-8107010D01*
X839000Y-8107010D01*
X839000Y-9321000D01*
X2052990Y-9321000D01*
X2192490Y-9181500D01*
X2192490Y-8446770D01*
X2500555Y-8446770D01*
X2500555Y-10445750D01*
X2524149Y-10564365D01*
X2591339Y-10664921D01*
X2691895Y-10732111D01*
X2810510Y-10755705D01*
X4809490Y-10755705D01*
X4928105Y-10732111D01*
X5028661Y-10664921D01*
X5095851Y-10564365D01*
X5119445Y-10445750D01*
X5119445Y-8446770D01*
X5675555Y-8446770D01*
X5675555Y-10445750D01*
X5699149Y-10564365D01*
X5766339Y-10664921D01*
X5866895Y-10732111D01*
X5985510Y-10755705D01*
X7984490Y-10755705D01*
X8103105Y-10732111D01*
X8203661Y-10664921D01*
X8270851Y-10564365D01*
X8294445Y-10445750D01*
X8294445Y-9525000D01*
X30430658Y-9525000D01*
X30570670Y-10228886D01*
X30969389Y-10825611D01*
X31566114Y-11224330D01*
X32092324Y-11329000D01*
X33947676Y-11329000D01*
X34473886Y-11224330D01*
X35070611Y-10825611D01*
X35469330Y-10228886D01*
X35609342Y-9525000D01*
X35469330Y-8821114D01*
X35070611Y-8224389D01*
X34473886Y-7825670D01*
X33947676Y-7721000D01*
X32092324Y-7721000D01*
X31566114Y-7825670D01*
X30969389Y-8224389D01*
X30570670Y-8821114D01*
X30430658Y-9525000D01*
X8294445Y-9525000D01*
X8294445Y-8446770D01*
X8270851Y-8328155D01*
X8203661Y-8227599D01*
X8103105Y-8160409D01*
X7984490Y-8136815D01*
X5985510Y-8136815D01*
X5866895Y-8160409D01*
X5766339Y-8227599D01*
X5699149Y-8328155D01*
X5675555Y-8446770D01*
X5119445Y-8446770D01*
X5095851Y-8328155D01*
X5028661Y-8227599D01*
X4928105Y-8160409D01*
X4809490Y-8136815D01*
X2810510Y-8136815D01*
X2691895Y-8160409D01*
X2591339Y-8227599D01*
X2524149Y-8328155D01*
X2500555Y-8446770D01*
X2192490Y-8446770D01*
X2192490Y-8414517D01*
X2107540Y-8209428D01*
X1950572Y-8052461D01*
X1745483Y-7967510D01*
X978500Y-7967510D01*
X839000Y-8107010D01*
X431000Y-8107010D01*
X291500Y-7967510D01*
X-475483Y-7967510D01*
X-680572Y-8052461D01*
X-837540Y-8209428D01*
X-922490Y-8414517D01*
X-1349507Y-8414517D01*
X-1421895Y-8366149D01*
X-1540510Y-8342555D01*
X-3539490Y-8342555D01*
X-3658105Y-8366149D01*
X-3758661Y-8433339D01*
X-3825851Y-8533895D01*
X-3849445Y-8652510D01*
X-4405555Y-8652510D01*
X-4405555Y-8525510D01*
X-4429149Y-8406895D01*
X-4496339Y-8306339D01*
X-4596895Y-8239149D01*
X-4715510Y-8215555D01*
X-5049520Y-8215555D01*
X-1836954Y-5002990D01*
X15070569Y-5002990D01*
X15113010Y-5011432D01*
X15155451Y-5002990D01*
X15155455Y-5002990D01*
X15281178Y-4977982D01*
X15423743Y-4882723D01*
X15447788Y-4846737D01*
X15471751Y-4822774D01*
X24715725Y-4822774D01*
X24800070Y-5037852D01*
X25318661Y-5189278D01*
X25855724Y-5130721D01*
X26079930Y-5037852D01*
X26164275Y-4822774D01*
X25440000Y-4098500D01*
X24715725Y-4822774D01*
X15471751Y-4822774D01*
X16605864Y-3688661D01*
X24060722Y-3688661D01*
X24119279Y-4225724D01*
X24212148Y-4449930D01*
X24427226Y-4534275D01*
X25151500Y-3810000D01*
X25728500Y-3810000D01*
X26452774Y-4534275D01*
X26667852Y-4449930D01*
X26819278Y-3931339D01*
X26760721Y-3394276D01*
X26667852Y-3170070D01*
X26452774Y-3085725D01*
X25728500Y-3810000D01*
X25151500Y-3810000D01*
X24427226Y-3085725D01*
X24212148Y-3170070D01*
X24060722Y-3688661D01*
X16605864Y-3688661D01*
X17006026Y-3288500D01*
X17293886Y-3288500D01*
X17568991Y-3174548D01*
X17779548Y-2963991D01*
X17848624Y-2797226D01*
X24715725Y-2797226D01*
X25440000Y-3521500D01*
X25951500Y-3010000D01*
X26830045Y-3010000D01*
X26830045Y-4610000D01*
X26853639Y-4728615D01*
X26920829Y-4829171D01*
X27021385Y-4896361D01*
X27140000Y-4919955D01*
X28740000Y-4919955D01*
X28858615Y-4896361D01*
X28959171Y-4829171D01*
X29026361Y-4728615D01*
X29049955Y-4610000D01*
X29049955Y-3010000D01*
X29026361Y-2891385D01*
X28959171Y-2790829D01*
X28858615Y-2723639D01*
X28740000Y-2700045D01*
X27140000Y-2700045D01*
X27021385Y-2723639D01*
X26920829Y-2790829D01*
X26853639Y-2891385D01*
X26830045Y-3010000D01*
X25951500Y-3010000D01*
X26164275Y-2797226D01*
X26079930Y-2582148D01*
X25561339Y-2430722D01*
X25024276Y-2489279D01*
X24800070Y-2582148D01*
X24715725Y-2797226D01*
X17848624Y-2797226D01*
X17893500Y-2688886D01*
X17893500Y-2391114D01*
X17779548Y-2116009D01*
X17568991Y-1905452D01*
X17293886Y-1791500D01*
X16996114Y-1791500D01*
X16721009Y-1905452D01*
X16510452Y-2116009D01*
X16396500Y-2391114D01*
X16396500Y-2678974D01*
X14934485Y-4140990D01*
X-1973040Y-4140990D01*
X-2015481Y-4132548D01*
X-2057922Y-4140990D01*
X-2057925Y-4140990D01*
X-2183648Y-4165998D01*
X-2326213Y-4261257D01*
X-2350256Y-4297240D01*
X-5989749Y-7936734D01*
X-6025732Y-7960777D01*
X-6049775Y-7996760D01*
X-6049776Y-7996761D01*
X-6078809Y-8040212D01*
X-6108420Y-8084529D01*
X-6120992Y-8103344D01*
X-6143312Y-8215555D01*
X-6714490Y-8215555D01*
X-6833105Y-8239149D01*
X-6933661Y-8306339D01*
X-7000851Y-8406895D01*
X-7024445Y-8525510D01*
X-7580555Y-8525510D01*
X-7604149Y-8406895D01*
X-7671339Y-8306339D01*
X-7771895Y-8239149D01*
X-7890510Y-8215555D01*
X-9889490Y-8215555D01*
X-10008105Y-8239149D01*
X-10108661Y-8306339D01*
X-10175851Y-8406895D01*
X-10199445Y-8525510D01*
X-10199445Y-9094000D01*
X-13791474Y-9094000D01*
X-17984000Y-4901475D01*
X-17984000Y-3590401D01*
X-17574000Y-3590401D01*
X-17574000Y-4029599D01*
X-17405926Y-4435366D01*
X-17095366Y-4745926D01*
X-16689599Y-4914000D01*
X-16250401Y-4914000D01*
X-15844634Y-4745926D01*
X-15534074Y-4435366D01*
X-15366000Y-4029599D01*
X-15366000Y-3590401D01*
X-15534074Y-3184634D01*
X-15708708Y-3010000D01*
X-15079955Y-3010000D01*
X-15079955Y-4610000D01*
X-15056361Y-4728615D01*
X-14989171Y-4829171D01*
X-14888615Y-4896361D01*
X-14770000Y-4919955D01*
X-13170000Y-4919955D01*
X-13051385Y-4896361D01*
X-12950829Y-4829171D01*
X-12883639Y-4728615D01*
X-12860045Y-4610000D01*
X-12860045Y-3010000D01*
X-12883639Y-2891385D01*
X-12950829Y-2790829D01*
X-13051385Y-2723639D01*
X-13170000Y-2700045D01*
X-13539000Y-2700045D01*
X-13539000Y-1448525D01*
X-10613465Y1477010D01*
X-10199445Y1477010D01*
X-10199445Y-521970D01*
X-10175851Y-640585D01*
X-10108661Y-741141D01*
X-10008105Y-808331D01*
X-9889490Y-831925D01*
X-7890510Y-831925D01*
X-7771895Y-808331D01*
X-7671339Y-741141D01*
X-7604149Y-640585D01*
X-7580555Y-521970D01*
X-7580555Y1477010D01*
X-7024445Y1477010D01*
X-7024445Y-521970D01*
X-7000851Y-640585D01*
X-6933661Y-741141D01*
X-6833105Y-808331D01*
X-6714490Y-831925D01*
X-4715510Y-831925D01*
X-4596895Y-808331D01*
X-4496339Y-741141D01*
X-4429149Y-640585D01*
X-4405555Y-521970D01*
X-4405555Y1350010D01*
X-3849445Y1350010D01*
X-3849445Y-648970D01*
X-3825851Y-767585D01*
X-3758661Y-868141D01*
X-3658105Y-935331D01*
X-3539490Y-958925D01*
X-1540510Y-958925D01*
X-1421895Y-935331D01*
X-1321339Y-868141D01*
X-1254149Y-767585D01*
X-1230555Y-648970D01*
X-1230555Y-80480D01*
X-674445Y-80480D01*
X-674445Y-521970D01*
X-650851Y-640585D01*
X-583661Y-741141D01*
X-483105Y-808331D01*
X-364490Y-831925D01*
X206688Y-831925D01*
X229008Y-944136D01*
X229009Y-944137D01*
X229009Y-944138D01*
X324268Y-1086703D01*
X360251Y-1110746D01*
X2064254Y-2814750D01*
X2088297Y-2850733D01*
X2230862Y-2945992D01*
X2356585Y-2971000D01*
X2356588Y-2971000D01*
X2399029Y-2979442D01*
X2441470Y-2971000D01*
X13977461Y-2971000D01*
X14181009Y-3174548D01*
X14456114Y-3288500D01*
X14753886Y-3288500D01*
X15028991Y-3174548D01*
X15239548Y-2963991D01*
X15353500Y-2688886D01*
X15353500Y-2391114D01*
X15239548Y-2116009D01*
X15028991Y-1905452D01*
X14753886Y-1791500D01*
X14456114Y-1791500D01*
X14181009Y-1905452D01*
X13977461Y-2109000D01*
X2577556Y-2109000D01*
X1300480Y-831925D01*
X1634490Y-831925D01*
X1753105Y-808331D01*
X1853661Y-741141D01*
X1920851Y-640585D01*
X1944445Y-521970D01*
X1944445Y212760D01*
X2252510Y212760D01*
X2252510Y-554223D01*
X2337460Y-759312D01*
X2494428Y-916279D01*
X2699517Y-1001230D01*
X3466500Y-1001230D01*
X3606000Y-861730D01*
X3606000Y352260D01*
X4014000Y352260D01*
X4014000Y-861730D01*
X4153500Y-1001230D01*
X4920483Y-1001230D01*
X5125572Y-916279D01*
X5282540Y-759312D01*
X5367490Y-554223D01*
X5367490Y212760D01*
X5227990Y352260D01*
X4014000Y352260D01*
X3606000Y352260D01*
X2392010Y352260D01*
X2252510Y212760D01*
X1944445Y212760D01*
X1944445Y1477010D01*
X1920851Y1595625D01*
X1853661Y1696181D01*
X1753105Y1763371D01*
X1634490Y1786965D01*
X-364490Y1786965D01*
X-483105Y1763371D01*
X-583661Y1696181D01*
X-650851Y1595625D01*
X-674445Y1477010D01*
X-674445Y781520D01*
X-1230555Y781520D01*
X-1230555Y1350010D01*
X-1254149Y1468625D01*
X-1321339Y1569181D01*
X-1421895Y1636371D01*
X-1540510Y1659965D01*
X-3539490Y1659965D01*
X-3658105Y1636371D01*
X-3758661Y1569181D01*
X-3825851Y1468625D01*
X-3849445Y1350010D01*
X-4405555Y1350010D01*
X-4405555Y1477010D01*
X-4429149Y1595625D01*
X-4496339Y1696181D01*
X-4596895Y1763371D01*
X-4715510Y1786965D01*
X-5049520Y1786965D01*
X-4727484Y2109000D01*
X2688050Y2109000D01*
X2494428Y2028799D01*
X2337460Y1871832D01*
X2252510Y1666743D01*
X2252510Y899760D01*
X2392010Y760260D01*
X3606000Y760260D01*
X3606000Y780260D01*
X4014000Y780260D01*
X4014000Y760260D01*
X5227990Y760260D01*
X5367490Y899760D01*
X5367490Y1666743D01*
X5282540Y1871832D01*
X5125572Y2028799D01*
X4931950Y2109000D01*
X5720817Y2109000D01*
X5763258Y2100558D01*
X5805699Y2109000D01*
X5805703Y2109000D01*
X5931426Y2134008D01*
X6073991Y2229267D01*
X6098036Y2265253D01*
X6236500Y2403717D01*
X6236500Y2200604D01*
X6350452Y1925499D01*
X6410246Y1865705D01*
X5985510Y1865705D01*
X5866895Y1842111D01*
X5766339Y1774921D01*
X5699149Y1674365D01*
X5675555Y1555750D01*
X5675555Y-443230D01*
X5699149Y-561845D01*
X5766339Y-662401D01*
X5866895Y-729591D01*
X5985510Y-753185D01*
X7984490Y-753185D01*
X8103105Y-729591D01*
X8203661Y-662401D01*
X8270851Y-561845D01*
X8291168Y-459707D01*
X8466009Y-634548D01*
X8741114Y-748500D01*
X9038886Y-748500D01*
X9313991Y-634548D01*
X9524548Y-423991D01*
X9638500Y-148886D01*
X9638500Y148886D01*
X9524548Y423991D01*
X9321000Y627539D01*
X9321000Y1862559D01*
X9329442Y1905000D01*
X30430658Y1905000D01*
X30570670Y1201114D01*
X30969389Y604389D01*
X31566114Y205670D01*
X32092324Y101000D01*
X33947676Y101000D01*
X34473886Y205670D01*
X35070611Y604389D01*
X35469330Y1201114D01*
X35609342Y1905000D01*
X35469330Y2608886D01*
X35070611Y3205611D01*
X34473886Y3604330D01*
X33947676Y3709000D01*
X32092324Y3709000D01*
X31566114Y3604330D01*
X30969389Y3205611D01*
X30570670Y2608886D01*
X30430658Y1905000D01*
X9329442Y1905000D01*
X9321000Y1947441D01*
X9321000Y1947445D01*
X9295992Y2073168D01*
X9200733Y2215733D01*
X9164749Y2239777D01*
X8780288Y2624237D01*
X8756243Y2660223D01*
X8613678Y2755482D01*
X8487955Y2780490D01*
X8487951Y2780490D01*
X8445510Y2788932D01*
X8403069Y2780490D01*
X7612539Y2780490D01*
X7408991Y2984038D01*
X7133886Y3097990D01*
X6930773Y3097990D01*
X8481784Y4649000D01*
X14548283Y4649000D01*
X14558402Y4624571D01*
X14784571Y4398402D01*
X15080075Y4276000D01*
X15399925Y4276000D01*
X15482008Y4310000D01*
X21288045Y4310000D01*
X21288045Y3310000D01*
X21311639Y3191385D01*
X21378829Y3090829D01*
X21479385Y3023639D01*
X21598000Y3000045D01*
X22598000Y3000045D01*
X22685606Y3017471D01*
X24260971Y3017471D01*
X24307421Y2833131D01*
X24716084Y2732383D01*
X25132194Y2795693D01*
X25222579Y2833131D01*
X25269029Y3017471D01*
X24765000Y3521500D01*
X24260971Y3017471D01*
X22685606Y3017471D01*
X22716615Y3023639D01*
X22817171Y3090829D01*
X22884361Y3191385D01*
X22907955Y3310000D01*
X22907955Y4310000D01*
X22884361Y4428615D01*
X22817171Y4529171D01*
X22716615Y4596361D01*
X22598000Y4619955D01*
X21598000Y4619955D01*
X21479385Y4596361D01*
X21378829Y4529171D01*
X21311639Y4428615D01*
X21288045Y4310000D01*
X15482008Y4310000D01*
X15695429Y4398402D01*
X15921598Y4624571D01*
X15931717Y4649000D01*
X22803283Y4649000D01*
X22813402Y4624571D01*
X23039571Y4398402D01*
X23335075Y4276000D01*
X23654925Y4276000D01*
X23906353Y4380145D01*
X23972469Y4314029D01*
X23788131Y4267579D01*
X23687383Y3858916D01*
X23750693Y3442806D01*
X23788131Y3352421D01*
X23972471Y3305971D01*
X24476500Y3810000D01*
X25053500Y3810000D01*
X25557529Y3305971D01*
X25741869Y3352421D01*
X25842617Y3761084D01*
X25779307Y4177194D01*
X25741869Y4267579D01*
X25557529Y4314029D01*
X25053500Y3810000D01*
X24476500Y3810000D01*
X24462358Y3824142D01*
X24750858Y4112642D01*
X24765000Y4098500D01*
X25269029Y4602529D01*
X25222579Y4786869D01*
X24813916Y4887617D01*
X24397806Y4824307D01*
X24307421Y4786869D01*
X24260971Y4602531D01*
X24194855Y4668647D01*
X24299000Y4920075D01*
X24299000Y5239925D01*
X24176598Y5535429D01*
X23950429Y5761598D01*
X23654925Y5884000D01*
X23335075Y5884000D01*
X23039571Y5761598D01*
X22813402Y5535429D01*
X22803283Y5511000D01*
X15931717Y5511000D01*
X15921598Y5535429D01*
X15695429Y5761598D01*
X15399925Y5884000D01*
X15080075Y5884000D01*
X14784571Y5761598D01*
X14558402Y5535429D01*
X14548283Y5511000D01*
X8345698Y5511000D01*
X8303257Y5519442D01*
X8260816Y5511000D01*
X8260813Y5511000D01*
X8135090Y5485992D01*
X7992525Y5390733D01*
X7968482Y5354750D01*
X5584733Y2971000D01*
X-4863565Y2971000D01*
X-4906010Y2979443D01*
X-4948455Y2971000D01*
X-5074178Y2945992D01*
X-5216743Y2850733D01*
X-5240786Y2814749D01*
X-5989747Y2065788D01*
X-6025733Y2041743D01*
X-6120992Y1899177D01*
X-6143312Y1786965D01*
X-6714490Y1786965D01*
X-6833105Y1763371D01*
X-6933661Y1696181D01*
X-7000851Y1595625D01*
X-7024445Y1477010D01*
X-7580555Y1477010D01*
X-7604149Y1595625D01*
X-7671339Y1696181D01*
X-7771895Y1763371D01*
X-7890510Y1786965D01*
X-9889490Y1786965D01*
X-10008105Y1763371D01*
X-10108661Y1696181D01*
X-10175851Y1595625D01*
X-10199445Y1477010D01*
X-10613465Y1477010D01*
X-6819172Y5271302D01*
X-6515827Y5271302D01*
X-4779776Y3535250D01*
X-4755733Y3499267D01*
X-4613168Y3404008D01*
X-4487445Y3379000D01*
X-4487441Y3379000D01*
X-4445000Y3370558D01*
X-4402559Y3379000D01*
X1603045Y3379000D01*
X1603045Y3310000D01*
X1626639Y3191385D01*
X1693829Y3090829D01*
X1794385Y3023639D01*
X1913000Y3000045D01*
X2913000Y3000045D01*
X3031615Y3023639D01*
X3132171Y3090829D01*
X3199361Y3191385D01*
X3222955Y3310000D01*
X3222955Y3969925D01*
X4276000Y3969925D01*
X4276000Y3650075D01*
X4398402Y3354571D01*
X4624571Y3128402D01*
X4920075Y3006000D01*
X5239925Y3006000D01*
X5535429Y3128402D01*
X5761598Y3354571D01*
X5884000Y3650075D01*
X5884000Y3969925D01*
X5761598Y4265429D01*
X5535429Y4491598D01*
X5239925Y4614000D01*
X4920075Y4614000D01*
X4624571Y4491598D01*
X4398402Y4265429D01*
X4276000Y3969925D01*
X3222955Y3969925D01*
X3222955Y4310000D01*
X3199361Y4428615D01*
X3132171Y4529171D01*
X3031615Y4596361D01*
X2913000Y4619955D01*
X1913000Y4619955D01*
X1794385Y4596361D01*
X1693829Y4529171D01*
X1626639Y4428615D01*
X1603045Y4310000D01*
X1603045Y4241000D01*
X-4266474Y4241000D01*
X-5353134Y5327660D01*
X-5128916Y5272383D01*
X-4712806Y5335693D01*
X-4622421Y5373131D01*
X-4575971Y5557469D01*
X-4509855Y5491353D01*
X-4614000Y5239925D01*
X-4614000Y4920075D01*
X-4491598Y4624571D01*
X-4265429Y4398402D01*
X-3969925Y4276000D01*
X-3650075Y4276000D01*
X-3354571Y4398402D01*
X-3128402Y4624571D01*
X-3118283Y4649000D01*
X3118283Y4649000D01*
X3128402Y4624571D01*
X3354571Y4398402D01*
X3650075Y4276000D01*
X3969925Y4276000D01*
X4265429Y4398402D01*
X4491598Y4624571D01*
X4614000Y4920075D01*
X4614000Y5239925D01*
X4491598Y5535429D01*
X4265429Y5761598D01*
X3969925Y5884000D01*
X3650075Y5884000D01*
X3354571Y5761598D01*
X3128402Y5535429D01*
X3118283Y5511000D01*
X-3118283Y5511000D01*
X-3128402Y5535429D01*
X-3354571Y5761598D01*
X-3650075Y5884000D01*
X-3969925Y5884000D01*
X-4221353Y5779855D01*
X-4287469Y5845971D01*
X-4103131Y5892421D01*
X-4002383Y6301084D01*
X-4051691Y6625165D01*
X-3501774Y6075248D01*
X-3477733Y6039267D01*
X-3441753Y6015226D01*
X-3441751Y6015224D01*
X-3335767Y5944408D01*
X-3335168Y5944008D01*
X-3222955Y5921687D01*
X-3222955Y5850000D01*
X-3199361Y5731385D01*
X-3132171Y5630829D01*
X-3031615Y5563639D01*
X-2913000Y5540045D01*
X-1913000Y5540045D01*
X-1794385Y5563639D01*
X-1693829Y5630829D01*
X-1626639Y5731385D01*
X-1603045Y5850000D01*
X-1603045Y6509925D01*
X13166000Y6509925D01*
X13166000Y6190075D01*
X13288402Y5894571D01*
X13514571Y5668402D01*
X13810075Y5546000D01*
X14129925Y5546000D01*
X14425429Y5668402D01*
X14651598Y5894571D01*
X14774000Y6190075D01*
X14774000Y6509925D01*
X14651598Y6805429D01*
X14425429Y7031598D01*
X14129925Y7154000D01*
X13810075Y7154000D01*
X13514571Y7031598D01*
X13288402Y6805429D01*
X13166000Y6509925D01*
X-1603045Y6509925D01*
X-1603045Y6850000D01*
X-1626639Y6968615D01*
X-1693829Y7069171D01*
X-1794385Y7136361D01*
X-1913000Y7159955D01*
X-2913000Y7159955D01*
X-3031615Y7136361D01*
X-3132171Y7069171D01*
X-3190039Y6982566D01*
X-4102222Y7894747D01*
X-4126267Y7930733D01*
X-4268832Y8025992D01*
X-4394555Y8051000D01*
X-4394559Y8051000D01*
X-4437000Y8059442D01*
X-4479441Y8051000D01*
X-5672555Y8051000D01*
X-5715000Y8059443D01*
X-5757445Y8051000D01*
X-5883168Y8025992D01*
X-6025733Y7930733D01*
X-6049776Y7894749D01*
X-6624749Y7319776D01*
X-6660732Y7295733D01*
X-6738909Y7178732D01*
X-6755992Y7153166D01*
X-6789442Y6985000D01*
X-6780999Y6942554D01*
X-6781000Y6133302D01*
X-6955258Y6133302D01*
X-6997699Y6141744D01*
X-7040140Y6133302D01*
X-7040143Y6133302D01*
X-7165866Y6108294D01*
X-7308431Y6013035D01*
X-7332474Y5977052D01*
X-14244749Y-935224D01*
X-14280732Y-959267D01*
X-14304775Y-995250D01*
X-14304776Y-995251D01*
X-14375992Y-1101834D01*
X-14409442Y-1270000D01*
X-14400999Y-1312446D01*
X-14401000Y-2700045D01*
X-14770000Y-2700045D01*
X-14888615Y-2723639D01*
X-14989171Y-2790829D01*
X-15056361Y-2891385D01*
X-15079955Y-3010000D01*
X-15708708Y-3010000D01*
X-15844634Y-2874074D01*
X-16250401Y-2706000D01*
X-16689599Y-2706000D01*
X-17095366Y-2874074D01*
X-17405926Y-3184634D01*
X-17574000Y-3590401D01*
X-17984000Y-3590401D01*
X-17984000Y-3353525D01*
X-6171474Y8459000D01*
X15061475Y8459000D01*
X16206001Y7314473D01*
X16206001Y7159955D01*
X16137000Y7159955D01*
X16018385Y7136361D01*
X15917829Y7069171D01*
X15850639Y6968615D01*
X15827045Y6850000D01*
X15827045Y5850000D01*
X15850639Y5731385D01*
X15917829Y5630829D01*
X16018385Y5563639D01*
X16137000Y5540045D01*
X17137000Y5540045D01*
X17255615Y5563639D01*
X17356171Y5630829D01*
X17423361Y5731385D01*
X17446955Y5850000D01*
X17446955Y6550429D01*
X17450526Y6554000D01*
X19692461Y6554000D01*
X19896009Y6350452D01*
X20171114Y6236500D01*
X20468886Y6236500D01*
X20743991Y6350452D01*
X20954548Y6561009D01*
X21068500Y6836114D01*
X21068500Y7133886D01*
X20954548Y7408991D01*
X20850112Y7513427D01*
X31841000Y7513427D01*
X31841000Y6456572D01*
X31916660Y6076205D01*
X32204870Y5644869D01*
X32636206Y5356660D01*
X33145000Y5255454D01*
X33653795Y5356660D01*
X33666276Y5365000D01*
X35655045Y5365000D01*
X35655045Y-6635000D01*
X35687768Y-6773616D01*
X35761917Y-6869157D01*
X35866984Y-6929049D01*
X38866984Y-7929049D01*
X38965000Y-7944955D01*
X39083615Y-7921361D01*
X39184171Y-7854171D01*
X39251361Y-7753615D01*
X39274955Y-7635000D01*
X39274955Y6365000D01*
X39259049Y6463016D01*
X39199157Y6568083D01*
X39103616Y6642232D01*
X38986972Y6674175D01*
X38866984Y6659049D01*
X35866984Y5659049D01*
X35745829Y5584171D01*
X35678639Y5483615D01*
X35655045Y5365000D01*
X33666276Y5365000D01*
X34085131Y5644869D01*
X34373340Y6076205D01*
X34449000Y6456573D01*
X34449000Y7513428D01*
X34373340Y7893795D01*
X34085131Y8325131D01*
X33653794Y8613340D01*
X33145000Y8714546D01*
X32636205Y8613340D01*
X32204869Y8325131D01*
X31916660Y7893794D01*
X31841000Y7513427D01*
X20850112Y7513427D01*
X20743991Y7619548D01*
X20468886Y7733500D01*
X20171114Y7733500D01*
X19896009Y7619548D01*
X19692461Y7416000D01*
X17314445Y7416000D01*
X17272000Y7424443D01*
X17229555Y7416000D01*
X17103832Y7390992D01*
X17068000Y7367050D01*
X17068000Y7450560D01*
X17076442Y7493001D01*
X17068000Y7535442D01*
X17068000Y7535445D01*
X17042992Y7661168D01*
X16947733Y7803733D01*
X16911750Y7827776D01*
X15574778Y9164747D01*
X15550733Y9200733D01*
X15408168Y9295992D01*
X15282445Y9321000D01*
X15282441Y9321000D01*
X15240000Y9329442D01*
X15197559Y9321000D01*
X-6307555Y9321000D01*
X-6350000Y9329443D01*
X-6392445Y9321000D01*
X-6518168Y9295992D01*
X-6660733Y9200733D01*
X-6684776Y9164750D01*
X-18689747Y-2840222D01*
X-18725733Y-2864267D01*
X-18820992Y-3006833D01*
X-18846000Y-3132556D01*
X-18846000Y-3132559D01*
X-18854442Y-3175000D01*
X-33812157Y-3175000D01*
X-33860670Y-2931114D01*
X-34259389Y-2334389D01*
X-34856115Y-1935670D01*
X-35560000Y-1795658D01*
X-36263886Y-1935670D01*
X-36860611Y-2334389D01*
X-37259330Y-2931115D01*
X-37364000Y-3457325D01*
X-46450045Y-3457325D01*
X-46450045Y5365000D01*
X-46482768Y5503616D01*
X-46556917Y5599157D01*
X-46661984Y5659049D01*
X-49312862Y6542675D01*
X-37364000Y6542675D01*
X-37363999Y2187324D01*
X-37259329Y1661114D01*
X-36860610Y1064389D01*
X-36263885Y665670D01*
X-35560000Y525658D01*
X-34856114Y665670D01*
X-34259389Y1064389D01*
X-33860670Y1661114D01*
X-33812158Y1905000D01*
X-24179342Y1905000D01*
X-24039330Y1201114D01*
X-23640611Y604389D01*
X-23043886Y205670D01*
X-22517676Y101000D01*
X-20662324Y101000D01*
X-20136114Y205670D01*
X-19539389Y604389D01*
X-19140670Y1201114D01*
X-19000658Y1905000D01*
X-19140670Y2608886D01*
X-19539389Y3205611D01*
X-20136114Y3604330D01*
X-20662324Y3709000D01*
X-22517676Y3709000D01*
X-23043886Y3604330D01*
X-23640611Y3205611D01*
X-24039330Y2608886D01*
X-24179342Y1905000D01*
X-33812158Y1905000D01*
X-33756000Y2187324D01*
X-33756000Y6532865D01*
X-13137087Y6532865D01*
X-12996707Y5931395D01*
X-12636840Y5429430D01*
X-12112272Y5103390D01*
X-11998115Y5091342D01*
X-11759000Y5181246D01*
X-11759000Y6781000D01*
X-11351000Y6781000D01*
X-11351000Y5181246D01*
X-11111885Y5091342D01*
X-10997728Y5103390D01*
X-10473160Y5429430D01*
X-10113293Y5931395D01*
X-9972913Y6532865D01*
X-10123735Y6781000D01*
X-11351000Y6781000D01*
X-11759000Y6781000D01*
X-12986265Y6781000D01*
X-13137087Y6532865D01*
X-33756000Y6532865D01*
X-33756000Y6542676D01*
X-33860670Y7068886D01*
X-34106726Y7437135D01*
X-13137087Y7437135D01*
X-12986265Y7189000D01*
X-11759000Y7189000D01*
X-11759000Y8788754D01*
X-11351000Y8788754D01*
X-11351000Y7189000D01*
X-10123735Y7189000D01*
X-9972913Y7437135D01*
X-10113293Y8038605D01*
X-10473160Y8540570D01*
X-10997728Y8866610D01*
X-11111885Y8878658D01*
X-11351000Y8788754D01*
X-11759000Y8788754D01*
X-11998115Y8878658D01*
X-12112272Y8866610D01*
X-12636840Y8540570D01*
X-12996707Y8038605D01*
X-13137087Y7437135D01*
X-34106726Y7437135D01*
X-34259389Y7665611D01*
X-34856115Y8064330D01*
X-35560000Y8204342D01*
X-36263886Y8064330D01*
X-36860611Y7665611D01*
X-37259330Y7068885D01*
X-37364000Y6542675D01*
X-49312862Y6542675D01*
X-49661984Y6659049D01*
X-49760000Y6674955D01*
X-49878615Y6651361D01*
X-49979171Y6584171D01*
X-50046361Y6483615D01*
X-50069955Y6365000D01*
X-50516096Y6365000D01*
X-50497390Y6574589D01*
X-50269667Y7407003D01*
X-49898132Y8185940D01*
X-49394531Y8886777D01*
X-48774789Y9487347D01*
X-48058483Y9968686D01*
X-47268262Y10315569D01*
X-46427375Y10517447D01*
X-45711747Y10570000D01*
X34914982Y10570000D01*
X35784589Y10492390D01*
G36*
X-4777358Y6364142D02*
X-4791500Y6350000D01*
X-4777358Y6335858D01*
X-5065858Y6047358D01*
X-5080000Y6061500D01*
X-5094142Y6047358D01*
X-5382642Y6335858D01*
X-5368500Y6350000D01*
X-5382642Y6364142D01*
X-5094142Y6652642D01*
X-5080000Y6638500D01*
X-5065858Y6652642D01*
X-4777358Y6364142D01*
X-4777358Y6364142D01*
G37*
X-4777358Y6364142D02*
X-4791500Y6350000D01*
X-4777358Y6335858D01*
X-5065858Y6047358D01*
X-5080000Y6061500D01*
X-5094142Y6047358D01*
X-5382642Y6335858D01*
X-5368500Y6350000D01*
X-5382642Y6364142D01*
X-5094142Y6652642D01*
X-5080000Y6638500D01*
X-5065858Y6652642D01*
X-4777358Y6364142D01*
G04 #@! TD*
M02*
